<svg xmlns="http://www.w3.org/2000/svg" version="1.1" xmlns:xlink="http://www.w3.org/1999/xlink" xmlns:svgjs="http://svgjs.dev/svgjs" viewBox="0 0 6.987969376262161 5.754921322122692"><g transform="matrix(0.844222647092666,0,0,0.844222647092666,2.026781539314733,1.9129086496527556)"><g><path d=" M -0.8487032194664315 1.7843995218712916 Q -0.9303424065624588 1.7723780341089728 -0.9943728529993027 1.736297944559912 Q -1.0584032994361465 1.700217855010851 -1.0995823450345528 1.6413446994885488 Q -1.1407613906329588 1.5824715439662462 -1.156432138771459 1.5011965543209551 Q -1.172102886909959 1.4199215646756638 -1.1570226774092986 1.317510276720884 Q -1.1420136009723207 1.2155820608790986 -1.1035802724554655 1.1422739743662316 Q -1.0651469439386103 1.0689658878533645 -1.008745422712179 1.0244616111948988 Q -0.9523439014857479 0.9799573345364331 -0.8806310841712093 0.9638656358821154 Q -0.8089182668566703 0.9477739372277978 -0.7272790797606432 0.9597954249901166 Q -0.6639966329583972 0.9691138563325058 -0.6114086396395448 0.9924042306197722 Q -0.5588206463206924 1.015694604907039 -0.5187882618735282 1.0521893177714592 Q -0.4787558774263641 1.0886840306358794 -0.4525579151970561 1.1386883215312418 Q -0.4263599529677482 1.1886926124266042 -0.4157864352809087 1.2509558048721905 Q -0.4045717613525652 1.2284234003543903 -0.3957841437217461 1.1922078512126042 Q -0.38699652609092705 1.155992302070818 -0.37937042894413225 1.100850948125792 L -0.36642421135394276 1.0129318235608396 L -0.24770197768752164 1.104939373689843 Q -0.256664743711499 1.1658064599271176 -0.2710315614410398 1.2147729941986276 Q -0.2853983791705806 1.2637395284701376 -0.30583015337788494 1.3019420579946863 Q -0.32626192758518935 1.3401445875192348 -0.35338399651061625 1.3684781234591283 Q -0.38050606543604315 1.3968116593990214 -0.41505046691547515 1.4168958210860567 L -0.41647312818912235 1.4265572633459418 Q -0.43155333768978266 1.5289685513007214 -0.4699866662066379 1.6022766378135884 Q -0.5084199947234932 1.6755847243264552 -0.5648215159499244 1.720089000984921 Q -0.6212230371763555 1.7645932776433868 -0.6936604626603856 1.780578276702181 Q -0.7660978881444157 1.796563275760975 -0.8487032194664315 1.7843995218712916 M -0.5164690555789309 1.4118327191636932 Q -0.5122010717579893 1.3828483923840387 -0.5190734652014799 1.3591332808489738 Q -0.5259458586449705 1.3354181693139089 -0.5532081325634662 1.3161038169264634 Q -0.5804704064819619 1.2967894645390179 -0.6324702098924111 1.2812356737260504 Q -0.6844700133028602 1.265681882913083 -0.7704568494158357 1.253020197577623 Q -0.8554775413028226 1.2405007783695274 -0.909270530638113 1.2404764282360583 Q -0.9630635199734032 1.2404520781025887 -0.994252971727211 1.251159329784469 Q -1.0254424234810189 1.2618665814663488 -1.0388590587832867 1.2825941043267546 Q -1.0522756940855542 1.3033216271871602 -1.0565436779064958 1.3323059539668147 Q -1.0608116617274375 1.3612902807464695 -1.053974834815788 1.3852469283380313 Q -1.0471380079041388 1.4092035759295933 -1.0203588060986373 1.4284467952533566 Q -0.9935796042931357 1.4476900145771197 -0.9420628729956808 1.463172672326405 Q -0.8905461416982261 1.47865533007569 -0.805525449811239 1.4911747492837852 Q -0.7195386136982636 1.5038364346192452 -0.6652625522499789 1.503931917816397 Q -0.6109864908016943 1.5040274010135488 -0.5793139669348923 1.493391282395351 Q -0.5476414430680903 1.4827551637771534 -0.5341892412339814 1.4617861048602507 Q -0.5207370393998725 1.4408170459433478 -0.5164690555789309 1.4118327191636932 M -0.9094945911986565 0.483900570968896 L -0.7616375582579822 0.24350479232345734 L -0.36901884711387484 0.4849875589255276 Q -0.3357460749830183 0.5054522001629912 -0.3059154880297611 0.5114749115577187 Q -0.27608490107650385 0.5174976229524463 -0.25022377089299985 0.5113337099600009 Q -0.22436264070949577 0.5051697969675555 -0.203158340524066 0.4884028473763964 Q -0.18195404033863627 0.4716358977852372 -0.16660555941053856 0.4466813186870948 Q -0.14972223038963112 0.41923128167913815 -0.14419459295862402 0.39253567267436595 Q -0.138666955527617 0.36584006366959376 -0.14542253536908264 0.340474893955809 Q -0.1521781152105483 0.3151097242420243 -0.17160062434768916 0.29169885829668085 Q -0.19102313348483 0.26828799235133727 -0.22429590561568655 0.24782335111387366 L -0.6160827974565225 0.00685220054274005 L -0.5598050340534977 -0.0846479228171153 L -0.18215907036827572 0.14762575522809618 Q -0.12476353844254814 0.18292726136272086 -0.0899810237993238 0.22982993057749057 Q -0.05519850915609942 0.27673259979226017 -0.04352585877109666 0.3309181204406494 Q -0.03185320838609379 0.3851036410890384 -0.044058732811716295 0.44409309732844887 Q -0.0562642572373388 0.5030825535678592 -0.09284480344930493 0.5625576337517654 Q -0.14272736646562242 0.6436600158207282 -0.19580073917406554 0.691271334407793 Q -0.24887411188250863 0.7388826529948577 -0.30412983127642246 0.7564894004432785 Q -0.3593855506703363 0.7740961478916992 -0.4158795489999324 0.7634254715588865 Q -0.4723735473295286 0.7527547952260738 -0.5297690792552561 0.7174532890914491 L -0.9094945911986565 0.483900570968896 M -0.2888566541562101 -0.35739548651442954 L -0.07639784855614518 -0.5439134180909424 L 0.4019323544094818 0.0016829602394083099 L 0.1898404897517313 0.1878787537648391 L -0.2888566541562101 -0.35739548651442954 M 0.37135178630498966 -0.43975568022297495 Q 0.34978526461563453 -0.4868062519199026 0.3419511923068047 -0.5361228619067389 Q 0.3341171199979749 -0.5854394718935751 0.34034849694459735 -0.633951964759374 Q 0.34657987389121986 -0.6824644576251728 0.366516076744131 -0.7292018367654113 Q 0.3864522795970421 -0.7759392159056497 0.42000091382043475 -0.8181734703513843 Q 0.45354954804382747 -0.8604077247971187 0.5007753846992721 -0.8968257135018242 Q 0.5480012213547167 -0.9332437022065294 0.6088118659064062 -0.961117414201262 Q 0.6478727178812141 -0.9790216963584624 0.6858425552414555 -0.990517438880414 Q 0.7238123926016968 -1.0020131814023658 0.7592948243321147 -1.007803152080235 Q 0.7947772560625326 -1.0135931227581039 0.8268197644657653 -1.0145835471348428 Q 0.8588622728689983 -1.0155739715115817 0.8863088824958982 -1.0131149484480386 L 0.8823166794569913 -0.9210468643879596 Q 0.8519664143566088 -0.9216378098711026 0.8164655037190296 -0.9153022369994447 Q 0.7809645930814505 -0.9089666641277869 0.7467863476034936 -0.8933004172402366 Q 0.7010673958602525 -0.8723442688062406 0.6695344807015402 -0.8380166738869049 Q 0.6380015655428279 -0.8036890789675694 0.6234288003189862 -0.7604843972363448 Q 0.6088560350951444 -0.7172797155051202 0.6122883320393416 -0.6670197323879977 Q 0.6157206289835389 -0.6167597492708753 0.6401355591979031 -0.56349495112341 Q 0.6643470316604809 -0.5106740262938402 0.6999601441521051 -0.4751647301812294 Q 0.7355732566437293 -0.4396554340686186 0.7776960683274625 -0.4221696790312083 Q 0.8198188800111958 -0.40468392399379793 0.8662874610190449 -0.40584122785402227 Q 0.9127560420268939 -0.4069985317142466 0.9580311204522394 -0.42775122239645624 Q 0.9899899993407185 -0.44240018052507474 1.0183883675729364 -0.4648169217168653 Q 1.0467867358051541 -0.4872336629086559 1.067518860077082 -0.5123134542348088 L 1.1398728677162087 -0.45524010348198507 Q 1.1240233499411318 -0.4323983474254822 1.1024773946620583 -0.4090940493709115 Q 1.0809314393829847 -0.38578975131634075 1.053827733290131 -0.36289217899233184 Q 1.026724027197277 -0.33999460666832293 0.9934521970352835 -0.31883538002856243 Q 0.96018036687329 -0.29767615338880193 0.9211195148984821 -0.2797718712316015 Q 0.8301254847298956 -0.23806303211539595 0.7447991299530032 -0.23144856767921873 Q 0.6594727751761109 -0.2248341032430415 0.5871660085564478 -0.24782122350769348 Q 0.5148592419367847 -0.2708083437723455 0.4591786765120103 -0.32021601988391224 Q 0.4034981110872359 -0.36962369599547895 0.37135178630498966 -0.43975568022297495 M 1.2690933504845865 -1.1598958786990488 L 1.5510950509141512 -1.1711596940118247 L 1.5678738484648436 -0.7510844966591337 L 1.8648097453366603 -1.1836902013580444 L 2.0058105955514427 -1.1893221090144324 L 1.786982755008082 -0.8688097676090374 L 2.106508767408266 -0.4666910576514825 L 1.7888909352635487 -0.4540046497473006 L 1.6178100247208462 -0.6753804411257871 L 1.573544731260722 -0.6091078620137991 L 1.580053579555648 -0.44615186211159374 L 1.298051879126083 -0.43488804679881776 L 1.2690933504845865 -1.1598958786990488 M 2.8947439693562 -0.9642475507432481 L 3.227170115642907 -0.7724484324981487 Q 3.297377164349769 -0.7319412395863337 3.3431999123164764 -0.6897186921085441 Q 3.3890226602831843 -0.6474961446307543 3.4117706610787533 -0.6053394360973813 Q 3.4345186618743226 -0.5631827275640082 3.4345904965705976 -0.5222712026631424 Q 3.4346623312668725 -0.4813596777622768 3.412944619404514 -0.44371854923871834 Q 3.3912269075421553 -0.4060774207151599 3.351136163237534 -0.38495605159254653 Q 3.3110454189329124 -0.3638346824699332 3.2569575898779406 -0.3629092701225313 Q 3.311954432752873 -0.3058102382788451 3.323290679542635 -0.2502254967625396 Q 3.3346269263323967 -0.194640755246234 3.3038805027969227 -0.14135106767355574 Q 3.28289484863779 -0.10497874123506107 3.2458215477083927 -0.08127081719464763 Q 3.2087482467789954 -0.05756289315423424 3.158726996906413 -0.05147257023495283 Q 3.108705747033831 -0.045382247315671476 3.0471112062275423 -0.05978060631903137 Q 2.9855166654212537 -0.07417896532239115 2.9153096167143917 -0.11468615823420603 L 2.532131387025134 -0.33576758460832834 L 2.8947439693562 -0.9642475507432481 M 3.0180341299203888 -0.5526230875956211 Q 3.052714720245465 -0.5326135103741221 3.080181323966654 -0.525503910686741 Q 3.107647927687843 -0.5183943109993598 3.1284047369667523 -0.5216388854122482 Q 3.149161546245661 -0.5248834598251366 3.163834762861101 -0.5361478719186236 Q 3.1785079794765405 -0.5474122840121106 3.1877807103840645 -0.563483777089585 Q 3.1970534412915885 -0.5795552701670594 3.199461571084745 -0.5978962400583936 Q 3.2018697008779022 -0.6162372099497279 3.194167920639849 -0.63561960605381 Q 3.186466140401796 -0.6550020021578922 3.1666861425644757 -0.6754340237384429 Q 3.146906144727155 -0.6958660453189935 3.112225554402079 -0.7158756225404925 L 3.086426578672449 -0.7307607958394124 L 2.9918122201624042 -0.5677522801289495 L 3.0180341299203888 -0.5526230875956211 M 2.856005358273129 -0.27179489276817376 Q 2.893646486796688 -0.2500771809058152 2.9240818279800793 -0.24322775414563244 Q 2.9545171691634713 -0.23637832738544973 2.978641296976427 -0.24106241941362727 Q 3.0027654247893825 -0.24574651144180482 3.02081415920259 -0.2604187487186392 Q 3.0388628936157973 -0.27509098599547344 3.051307874570632 -0.2966606214415575 Q 3.0622887401190155 -0.315692652717514 3.0651687546881994 -0.3382711621561148 Q 3.0680487692573832 -0.36084967159471554 3.061209255603481 -0.3836806443660969 Q 3.0543697419495786 -0.4065116171374782 3.0373795667805146 -0.42787076490799053 Q 3.0203893916114506 -0.4492299126785029 2.991629877683339 -0.46582322061828246 L 2.9476447387344615 -0.4912012209967689 L 2.8297834485151445 -0.2869240853015022 L 2.856005358273129 -0.27179489276817376 M 3.829690128406281 -0.30602462906238603 L 4.017944015354871 -0.09510247061208388 L 3.476288434449694 0.38768570528973756 L 3.2883596837479923 0.1771278338143064 L 3.829690128406281 -0.30602462906238603 M 4.21271716078606 0.3944832481222894 L 4.1226031776350425 0.20809277487534295 L 4.223271617195304 0.15942272265462842 L 4.526343645434339 0.7862925689993118 L 4.425675205874077 0.8349626212200263 L 4.33556122272306 0.6485721479730797 L 3.7825442054007516 0.9159386357183148 L 3.659700143463752 0.6618497358675245 L 4.21271716078606 0.3944832481222894 M 4.618933601670846 1.1508507580424068 L 4.683786838660131 1.7606933190805605 L 4.5725973908275375 1.7725176751876832 L 4.537640669934428 1.4438047660930735 L 4.342886115624484 1.4640247545259277 L 4.3696329124082816 1.7155362566101344 L 4.258443464575689 1.7273606127172574 L 4.231696667791891 1.4758491106330507 L 4.038450378545725 1.4963997382777445 L 4.07345873418166 1.8255981908126715 L 3.9622692863490667 1.8374225469197945 L 3.897416049359782 1.2275799858816407 L 4.618933601670846 1.1508507580424068" fill="url(#gradient-2cc8f728-931d-45af-bc96-9303e8a94f14)" fill-rule="nonzero"></path></g><g transform="matrix(1,0,0,1,0,0)" clip-path="url(#SvgjsClipPath80505)"><g clip-path="url(#SvgjsClipPath80501ac34a537-6fba-4abb-bba0-d7b7be905906)"><path d=" M 1.8363338869220687 3.1844464599978566 C 2.6911485935063513 3.1844464599978566 3.384106752178614 2.486638536255585 3.384106752178614 1.6256307843480897 C 3.384106752178614 0.7646230324405942 2.6911485935063513 0.06679766350022898 1.8363338869220687 0.06679766350022898 C 0.9815191803377858 0.06679766350022898 0.2885610216655229 0.7647102584310619 0.2885610216655229 1.6256307843480897 C 0.2885610216655229 2.486551310265117 0.9815366255358793 3.1844464599978566 1.8363338869220687 3.1844464599978566 Z M 1.8363338869220687 3.2372879650232402 C 2.7201250675397493 3.2372879650232402 3.43656446284594 2.515719681477544 3.43656446284594 1.6256307843480897 C 3.43656446284594 0.7355418872186349 2.7201250675397493 0.013956158474845437 1.8363338869220687 0.013956158474845437 C 0.952542706304388 0.013956158474845437 0.2361033109981976 0.7355244420205413 0.2361033109981976 1.6256307843480897 C 0.2361033109981976 2.5157371266756376 0.9525078159082009 3.2372879650232402 1.8363338869220687 3.2372879650232402 Z" fill="url(#gradient-1d3624db-a632-4dc8-ba9c-bae40a1c8620_0)" transform="matrix(1,0,0,1,0,0)" fill-rule="evenodd"></path></g><g clip-path="url(#SvgjsClipPath80501ac34a537-6fba-4abb-bba0-d7b7be905906)"><path d=" M 1.6002305759238709 3.2372879650232402 C 2.4550452825081535 3.2372879650232402 3.1480034411804168 2.539480041280968 3.1480034411804168 1.678472289373473 C 3.1480034411804168 0.8174645374659776 2.455045282508154 0.11963916852561252 1.6002305759238709 0.11963916852561252 C 0.7454158693395879 0.11963916852561252 0.05247515586541873 0.8175517634564454 0.05247515586541873 1.678472289373473 C 0.05247515586541873 2.5393928152905008 0.7454333145376816 3.2372879650232402 1.6002305759238709 3.2372879650232402 Z M 1.6002305759238709 3.290129470048623 C 2.4840217565415514 3.290129470048623 3.2004785970458354 2.5685611865029276 3.2004785970458354 1.678472289373473 C 3.2004785970458354 0.7883833922440184 2.4840217565415514 0.06679766350022898 1.6002305759238709 0.06679766350022898 C 0.7164393953061905 0.06679766350022898 0 0.7883659470459249 0 1.678472289373473 C 0 2.5685786317010213 0.7164568405042839 3.2901643604448108 1.6002305759238709 3.2901643604448108 Z" fill="url(#gradient-1d3624db-a632-4dc8-ba9c-bae40a1c8620_1)" transform="matrix(1,0,0,1,0,0)" fill-rule="evenodd"></path></g><g clip-path="url(#SvgjsClipPath80501ac34a537-6fba-4abb-bba0-d7b7be905906)"><path d=" M 1.8888090427874875 3.422241955211129 C 2.7436237493717703 3.422241955211129 3.43656446284594 2.7243293602802963 3.43656446284594 1.8634088343632689 C 3.43656446284594 1.0024883084462413 2.7436063041736767 0.30459315871350157 1.8888090427874875 0.30459315871350157 C 1.034011781401298 0.30459315871350157 0.34103617753094173 1.0025057536443343 0.34103617753094173 1.8634088343632684 C 0.34103617753094173 2.7243119150822026 1.0339943362032047 3.422241955211129 1.8888090427874875 3.422241955211129 Z M 1.8888090427874875 3.4750834602365126 C 2.772582778207074 3.4750834602365126 3.489039618711358 2.753515176690817 3.489039618711358 1.8634088343632684 C 3.489039618711358 0.9733024920357202 2.7725827782070747 0.2517342084900245 1.8888090427874875 0.2517342084900245 C 1.0050353073679001 0.2517342084900245 0.2885610216655228 0.973319937233814 0.2885610216655228 1.8634088343632684 C 0.2885610216655228 2.753497731492723 1.0050178621698067 3.4750834602365126 1.8888090427874875 3.4750834602365126 Z" fill="url(#gradient-1d3624db-a632-4dc8-ba9c-bae40a1c8620_2)" transform="matrix(1,0,0,1,0,0)" fill-rule="evenodd"></path></g><path d=" M 1.7549180260377657 1.504914117613124 C 1.7549180260377657 1.4651376786677197 1.718929819372876 1.4196788913015432 1.6905180772690156 1.3950553814781976 C 1.6791533804274716 1.370431871654852 1.612859315518464 1.3136083874471316 1.5901299218353762 1.3060319228861021 C 1.578765224993832 1.2984554583250727 1.5692946442925453 1.2908789937640432 1.5598240635912584 1.2908789937640432 C 1.540882902188685 1.2814084130627565 1.5219417407861113 1.273831948501727 1.50868292780431 1.273831948501727 C 1.5011064632432807 1.273831948501727 1.4897417664017363 1.2776201807822418 1.4897417664017363 1.2870907614835285 C 1.4897417664017363 1.3098201551666167 1.5427770183289424 1.3666436393743373 1.557929947451001 1.4064200783197416 C 1.5825534572743467 1.4689259109482342 1.5939181541158907 1.537114091997499 1.5939181541158907 1.6053022730467639 C 1.5939181541158907 1.7019021961998888 1.5692946442925453 1.7985021193530137 1.525729973066626 1.8761608811035653 C 1.5105770439445672 1.838278558298418 1.4726947211394203 1.7397845190050356 1.4234477014927291 1.7397845190050356 C 1.4139771207914422 1.7284198221634917 1.3988241916693833 1.7056904284804035 1.385565378687582 1.7056904284804035 C 1.3817771464070674 1.7056904284804035 1.3760947979862954 1.7075845446206608 1.3723065657057805 1.7132668930414328 L 1.3552595204434645 1.7132668930414328 C 1.31548308149806 1.7132668930414328 1.288965455534457 1.7265257060232342 1.288965455534457 1.773878609529668 C 1.288965455534457 1.800396235493271 1.3022242685162586 1.826913861456874 1.3079066169370306 1.849643255139962 L 1.3135889653578028 1.8647961842620209 C 1.3382124751811482 1.9310902491710285 1.364730101144751 1.9973843140800356 1.3817771464070674 2.057996030568271 C 1.3628359850044938 2.0674666112695577 1.3457889397421776 2.0731489596903296 1.3268477783396042 2.0731489596903296 C 1.3022242685162586 2.0731489596903296 1.277600758692913 2.063678378989043 1.2567654811500821 2.0447372175864693 C 1.2321419713267365 2.010643127061837 1.213200809924163 1.9708666881164327 1.213200809924163 1.9273020168905135 L 1.213200809924163 1.9159373200489695 C 1.2113066937839057 1.8988902747866532 1.2094125776436482 1.8837373456645947 1.2094125776436482 1.8685844165425358 C 1.2094125776436482 1.6412904797116534 1.3817771464070674 1.3136083874471316 1.5655064120120306 1.1904908383304036 C 1.5901299218353762 1.1810202576291169 1.612859315518464 1.1715496769278302 1.6355887092015524 1.160184980086286 C 1.6564239867443833 1.1469261671044846 1.6905180772690156 1.1393497025434551 1.7094592386715894 1.1241967734213962 C 1.7378709807754495 1.1090438442993373 1.745447445336479 1.0938909151772787 1.745447445336479 1.063585056933161 C 1.7416592130559643 1.0162321534267271 1.6412710576223246 0.9480439723774624 1.5674005281522878 0.9480439723774624 L 1.5484593667497144 0.9480439723774624 C 1.1753184871190159 0.9480439723774624 0.9063539952024718 1.5030200014728667 0.9063539952024718 1.81554916461533 C 0.9063539952024718 1.8913138102256242 0.9196128081842734 1.9651843396956608 0.949918666428391 2.0333725207449254 C 0.9972715699348248 2.1678547667031975 1.1393302804541263 2.2265723670511752 1.271918410272141 2.2265723670511752 C 1.3268477783396042 2.2265723670511752 1.3779889141265524 2.2171017863498887 1.4215535853524717 2.198160624947315 C 1.455647675877104 2.289078199679668 1.4897417664017363 2.4008310519548517 1.5541417151704864 2.484172162126175 C 1.5749769927133173 2.510689788089778 1.5958122702561481 2.5485721108949253 1.6355887092015524 2.5523603431754402 C 1.6393769414820674 2.5542544593156973 1.6431651737625819 2.5561485754559543 1.6469534060430966 2.5561485754559543 C 1.6507416383236113 2.5561485754559543 1.6526357544638688 2.5542544593156973 1.6564239867443833 2.5523603431754402 C 1.6640004513054127 2.5523603431754402 1.6696827997261847 2.5523603431754402 1.6734710320066994 2.5561485754559543 C 1.6715769158664422 2.5447838786144104 1.6640004513054127 2.540995646333896 1.6640004513054127 2.531525065632609 C 1.6658945674456702 2.5334191817728664 1.6696827997261847 2.5334191817728664 1.6715769158664422 2.5334191817728664 C 1.6715769158664422 2.531525065632609 1.6696827997261847 2.525842717211837 1.6696827997261847 2.5239486010715795 C 1.6696827997261847 2.5239486010715795 1.6734710320066994 2.525842717211837 1.675365148146957 2.525842717211837 L 1.6848357288482436 2.525842717211837 C 1.692412193409273 2.525842717211837 1.6905180772690156 2.5391015301936384 1.692412193409273 2.5447838786144104 C 1.692412193409273 2.535313297913124 1.692412193409273 2.5296309494923515 1.698094541830045 2.5277368333520944 C 1.70188277411056 2.5277368333520944 1.70188277411056 2.520160368791065 1.70188277411056 2.520160368791065 C 1.70188277411056 2.514478020370293 1.6999886579703025 2.5087956719495206 1.698094541830045 2.5031133235287486 C 1.698094541830045 2.4974309751079766 1.698094541830045 2.4974309751079766 1.6999886579703025 2.4974309751079766 C 1.6999886579703025 2.4974309751079766 1.7056710063910745 2.499325091248234 1.707565122531332 2.499325091248234 C 1.7056710063910745 2.5012192073884916 1.7056710063910745 2.5031133235287486 1.7056710063910745 2.505007439669006 C 1.7056710063910745 2.505007439669006 1.707565122531332 2.510689788089778 1.707565122531332 2.5125839042300355 C 1.707565122531332 2.514478020370293 1.7113533548118465 2.5239486010715795 1.7151415870923614 2.5277368333520944 C 1.7151415870923614 2.5220544849313224 1.7170357032326187 2.520160368791065 1.718929819372876 2.5182662526508075 L 1.7208239355131334 2.5182662526508075 C 1.7227180516533909 2.5182662526508075 1.7265062839339054 2.51637213651055 1.7284004000741628 2.5125839042300355 L 1.7397650969157068 2.5012192073884916 C 1.7492356776169937 2.4917486266872046 1.7549180260377657 2.478489813705403 1.7549180260377657 2.465231000723602 C 1.7549180260377657 2.4330310263392265 1.7340827484949348 2.3951487035340797 1.7227180516533909 2.376207542131506 C 1.6715769158664422 2.2796076189783814 1.628012244640523 2.1849018119655135 1.6090710832379496 2.090196004952646 C 1.7094592386715894 1.9727608042566902 1.783329768141626 1.8041844677737857 1.783329768141626 1.6526551765531976 C 1.783329768141626 1.6223493183090798 1.779541535861111 1.5939375762052195 1.773859187440339 1.5655258341013591 C 1.7719650713000819 1.5295376274364698 1.7681768390195671 1.5238552790156976 1.7549180260377657 1.504914117613124 M 1.6507416383236113 1.9689725719761753 C 1.6526357544638688 1.9576078751346313 1.6640004513054127 1.9443490621528299 1.6677886835859275 1.9329843653112855 C 1.660212219024898 1.934878481451543 1.6640004513054127 1.9443490621528299 1.654529870604126 1.9481372944333444 C 1.660212219024898 1.934878481451543 1.6696827997261847 1.925407900750256 1.6734710320066994 1.914043203908712 C 1.6772592642872142 1.9121490877684546 1.6829416127079861 1.90836085548794 1.6829416127079861 1.9045726232074256 C 1.681047496567729 1.9045726232074256 1.681047496567729 1.9045726232074256 1.6791533804274716 1.9045726232074256 C 1.698094541830045 1.8666903004022783 1.7265062839339054 1.7795609579504403 1.7340827484949348 1.766302144968639 C 1.7378709807754495 1.7587256804076092 1.7397650969157068 1.747360983566065 1.7435533291962217 1.7378904028647786 C 1.7435533291962217 1.75114921584658 1.7378709807754495 1.766302144968639 1.7359768646351923 1.7795609579504403 C 1.7321886323546776 1.7795609579504403 1.7359768646351923 1.7928197709322418 1.7227180516533909 1.800396235493271 C 1.718929819372876 1.8212315130361019 1.718929819372876 1.838278558298418 1.7094592386715894 1.859113835841249 C 1.7056710063910745 1.8666903004022783 1.6999886579703025 1.8723726488230503 1.6999886579703025 1.8837373456645947 C 1.686729844988501 1.8894196940853667 1.692412193409273 1.9026785070671681 1.6848357288482436 1.9102549716281976 C 1.6772592642872142 1.9329843653112855 1.660212219024898 1.9481372944333444 1.6507416383236113 1.9689725719761753 M 1.7359768646351923 1.6962198477791168 C 1.7359768646351923 1.7075845446206608 1.7340827484949348 1.7151610091816902 1.7340827484949348 1.724631589882977 C 1.7321886323546776 1.724631589882977 1.73029451621442 1.7265257060232342 1.73029451621442 1.7284198221634917 C 1.73029451621442 1.7322080544440064 1.718929819372876 1.7776668418101829 1.7170357032326187 1.7814550740906976 C 1.7151415870923614 1.7871374225114696 1.713247470952104 1.7890315386517268 1.713247470952104 1.7909256547919843 C 1.713247470952104 1.7928197709322418 1.7094592386715894 1.8060785839140432 1.7056710063910745 1.8098668161945577 C 1.7113533548118465 1.7795609579504403 1.7227180516533909 1.747360983566065 1.7284004000741628 1.7113727769011755 L 1.7340827484949348 1.6791728025168005 C 1.7359768646351923 1.6848551509375724 1.7359768646351923 1.6905374993583446 1.7359768646351923 1.6962198477791168 M 1.6848357288482436 1.9500314105736019 C 1.6829416127079861 1.9500314105736019 1.686729844988501 1.9424549460125724 1.6905180772690156 1.934878481451543 C 1.6905180772690156 1.925407900750256 1.7056710063910745 1.919725552329484 1.7056710063910745 1.9045726232074256 C 1.7056710063910745 1.90836085548794 1.713247470952104 1.8856314618048517 1.713247470952104 1.8837373456645947 C 1.7170357032326187 1.8818432295243372 1.718929819372876 1.8761608811035653 1.7208239355131334 1.8723726488230503 C 1.7170357032326187 1.8951020425061387 1.707565122531332 1.9216196684697415 1.692412193409273 1.9386667137320575 C 1.6886239611287583 1.9462431782930874 1.686729844988501 1.9500314105736019 1.6848357288482436 1.9500314105736019 M 1.745447445336479 1.6053022730467639 C 1.745447445336479 1.6204552021688226 1.7435533291962217 1.6375022474311387 1.7435533291962217 1.6526551765531976 C 1.7435533291962217 1.6526551765531976 1.7435533291962217 1.671596337955771 1.7359768646351923 1.6734904540960285 C 1.7397650969157068 1.6507610604129401 1.7416592130559643 1.628031666729852 1.7416592130559643 1.6053022730467639 C 1.7416592130559643 1.5882552277844475 1.7397650969157068 1.5731022986623886 1.7378709807754495 1.55794936954033 C 1.7435533291962217 1.574996414802646 1.745447445336479 1.590149343924705 1.745447445336479 1.6053022730467639 M 1.7284004000741628 1.8553256035607344 C 1.7284004000741628 1.8515373712802194 1.7340827484949348 1.8250197453166166 1.7397650969157068 1.8250197453166166 C 1.7359768646351923 1.8344903260179033 1.7359768646351923 1.849643255139962 1.7284004000741628 1.8572197197009916 C 1.7265062839339054 1.8666903004022783 1.7246121677936481 1.8685844165425358 1.7208239355131334 1.8685844165425358 C 1.7208239355131334 1.8610079519815064 1.7227180516533909 1.8572197197009916 1.7284004000741628 1.8553256035607344 M 2.3516080787044724 1.537114091997499 C 2.455784466418627 1.4765023755092637 2.535337344309436 1.3533848263925359 2.5372314604496933 1.2492084386783815 L 2.5372314604496933 1.241631974117352 C 2.5372314604496933 1.1431379348239696 2.4576785825588843 0.9916086436033816 2.2644787362526344 0.9916086436033816 C 2.2644787362526344 0.9537263207982346 2.2247022973072297 0.9328910432554036 2.1527258839774506 0.9328910432554036 C 1.9917260120555755 0.9328910432554036 1.9879377797750606 0.9859262951826095 1.9879377797750606 0.9802439467618375 C 1.9708907345127447 0.9878204113228669 1.9633142699517152 1.0181262695669846 1.9633142699517152 1.0351733148293008 C 1.8932319727621931 1.408314194459999 1.7985261657493254 1.7909256547919843 1.7985261657493254 2.126184211617536 L 1.7985261657493254 2.1413371407395947 C 1.7985261657493254 2.2265723670511752 1.800420281889583 2.3269605224848147 1.8591378822375608 2.3269605224848147 C 1.849667301536274 2.3155958256432707 1.8477731853960169 2.3099134772224987 1.8477731853960169 2.3061252449419842 C 1.849667301536274 2.3061252449419842 1.8686084629388475 2.311807593362756 1.8761849274998768 2.3193840579237857 C 1.8761849274998768 2.3137017095030132 1.870502579079105 2.3099134772224987 1.8686084629388475 2.3080193610822417 C 1.8742908113596197 2.311807593362756 1.8761849274998768 2.3155958256432707 1.8799731597803917 2.3155958256432707 C 1.8818672759206492 2.3155958256432707 1.8913378566219357 2.3155958256432707 1.8894437404816782 2.3137017095030132 C 1.8818672759206492 2.3061252449419842 1.8648202306583328 2.2909723158199253 1.8629261145180755 2.283395851258896 C 1.8761849274998768 2.283395851258896 1.8913378566219357 2.3155958256432707 1.904596669603737 2.3193840579237857 C 1.9027025534634796 2.3137017095030132 1.9008084373232226 2.3061252449419842 1.8951260889024506 2.300442896521212 C 1.9027025534634796 2.300442896521212 1.908384901884252 2.3042311288017268 1.9159613664452815 2.3080193610822417 C 1.9121731341647665 2.300442896521212 1.904596669603737 2.2966546642406973 1.904596669603737 2.289078199679668 C 1.9064907857439946 2.2852899673991534 1.914067250305024 2.2815017351186384 1.923537831006311 2.2815017351186384 C 1.9367966439881124 2.2947605481004403 1.9443731085491418 2.300442896521212 1.9481613408296563 2.300442896521212 C 1.9538436892504283 2.300442896521212 1.9557378053906858 2.292866431960183 1.9557378053906858 2.289078199679668 C 1.9671025022322297 2.2909723158199253 1.99551424433609 2.3023370126614693 2.001196592756862 2.3023370126614693 C 2.001196592756862 2.3023370126614693 1.9860436636348036 2.2909723158199253 1.9860436636348036 2.2871840835394104 C 1.9860436636348036 2.2871840835394104 1.99551424433609 2.2909723158199253 1.9974083604763475 2.2909723158199253 C 1.9974083604763475 2.2909723158199253 1.99551424433609 2.2871840835394104 1.99551424433609 2.2852899673991534 C 1.9974083604763475 2.2852899673991534 1.999302476616605 2.289078199679668 2.004984825037377 2.289078199679668 C 2.0068789411776344 2.289078199679668 2.03150245100098 2.2966546642406973 2.0447612639827812 2.2966546642406973 C 2.0447612639827812 2.2947605481004403 2.0466553801230387 2.292866431960183 2.048549496263296 2.292866431960183 C 2.0637024253853546 2.292866431960183 2.075067122226899 2.292866431960183 2.075067122226899 2.2796076189783814 C 2.075067122226899 2.2796076189783814 2.0977965159099874 2.292866431960183 2.1091612127515313 2.292866431960183 C 2.09590239976973 2.2796076189783814 2.076961238367156 2.2379370638927196 2.076961238367156 2.207631205648602 C 2.076961238367156 2.2000547410875724 2.0788553545074135 2.1962665088070574 2.080749470647671 2.186795928105771 C 2.080749470647671 2.20194885722783 2.086431819068443 2.251195876874521 2.0996906320502444 2.262560573716065 C 2.0996906320502444 2.2606664575758075 2.1148435611723033 2.283395851258896 2.1205259095930753 2.2852899673991534 C 2.0996906320502444 2.2587723414355505 2.0977965159099874 2.213313554069374 2.0977965159099874 2.1697488828434546 L 2.0977965159099874 2.1375489084590797 C 2.0977965159099874 2.1242900954772783 2.0977965159099874 2.1186077470565063 2.101584748190502 2.1053489340747045 C 2.1034788643307594 2.1091371663552194 2.1243141418735902 2.1091371663552194 2.1281023741541047 2.112925398635734 C 2.1281023741541047 2.112925398635734 2.1148435611723033 2.1148195147759914 2.1148435611723033 2.1205018631967634 C 2.1224200257333328 2.116713630916249 2.129996490294362 2.116713630916249 2.141361187135906 2.116713630916249 C 2.141361187135906 2.1205018631967634 2.135678838715134 2.122395979337021 2.1318906064346197 2.1242900954772783 C 2.1281023741541047 2.1242900954772783 2.1262082580138477 2.128078327757793 2.1262082580138477 2.1299724438980503 L 2.1432553032761636 2.122395979337021 C 2.1489376516969356 2.122395979337021 2.1489376516969356 2.1318665600383078 2.1527258839774506 2.1318665600383078 C 2.162196464678737 2.1318665600383078 2.1640905808189945 2.1337606761785652 2.171667045380024 2.1375489084590797 C 2.165984696959252 2.139443024599337 2.1640905808189945 2.1413371407395947 2.1640905808189945 2.1413371407395947 C 2.1640905808189945 2.1413371407395947 2.1697729292397665 2.150807721440881 2.1811376260813105 2.150807721440881 C 2.183031742221568 2.150807721440881 2.186819974502083 2.150807721440881 2.1906082067825974 2.1489136053006237 C 2.194396439063112 2.1470194891603667 2.198184671343627 2.1432312568798517 2.2000787874838843 2.1432312568798517 C 2.2057611359046563 2.1432312568798517 2.2000787874838843 2.1489136053006237 2.2076552520449138 2.150807721440881 C 2.2076552520449138 2.154595953721396 2.209549368185171 2.156490069861653 2.209549368185171 2.156490069861653 C 2.203867019764399 2.156490069861653 2.203867019764399 2.1583841860019106 2.203867019764399 2.160278302142168 C 2.203867019764399 2.162172418282425 2.2133376004656857 2.156490069861653 2.2190199488864577 2.156490069861653 C 2.2228081811669727 2.156490069861653 2.2247022973072297 2.1583841860019106 2.2247022973072297 2.162172418282425 C 2.232278761868259 2.160278302142168 2.237961110289031 2.1583841860019106 2.243643458709803 2.1583841860019106 C 2.247431690990318 2.1583841860019106 2.2228081811669727 2.171642998983712 2.2114434843254283 2.1735371151239695 L 2.2247022973072297 2.1735371151239695 C 2.2284905295877446 2.1735371151239695 2.2341728780085166 2.175431231264227 2.236066994148774 2.177325347404484 C 2.2493258071305755 2.1735371151239695 2.258796387831862 2.171642998983712 2.2663728523928914 2.171642998983712 C 2.2663728523928914 2.171642998983712 2.273949316953921 2.1735371151239695 2.28910224607598 2.1735371151239695 C 2.3572904271252444 2.1735371151239695 2.5580667379925237 2.1489136053006237 2.6148902222002444 1.8913138102256242 L 2.6148902222002444 1.8856314618048517 C 2.612996106059987 1.8856314618048517 2.599737293078186 1.9367725975918004 2.5883725962366415 1.940560829872315 C 2.5978431769379284 1.9102549716281976 2.609207873779472 1.8780549972438223 2.609207873779472 1.8458550228594475 C 2.609207873779472 1.7909256547919843 2.590266712376899 1.7397845190050356 2.5561726218522662 1.68674926707783 C 2.5940549446574135 1.7341021705842636 2.6148902222002444 1.7909256547919843 2.616784338340502 1.8666903004022783 C 2.616784338340502 1.859113835841249 2.6205725706210163 1.849643255139962 2.6205725706210163 1.842066790578933 C 2.6205725706210163 1.6848551509375724 2.501243253784803 1.5787846470831606 2.3516080787044724 1.537114091997499 M 2.4387374211563104 1.838278558298418 C 2.425478608174509 1.9708666881164327 2.2720552008136634 2.0447372175864693 2.1034788643307594 2.046631333726727 C 2.116737677312561 1.9064667393476826 2.1375729548553917 1.7833491902309548 2.1584082323982225 1.6507610604129401 C 2.167878813099509 1.6507610604129401 2.177349393800796 1.6488669442726829 2.186819974502083 1.6488669442726829 C 2.3194081043200976 1.6488669442726829 2.4387374211563104 1.730313938303749 2.4387374211563104 1.8250197453166166 M 2.25311403941109 1.1052556120188226 C 2.262584620112377 1.1033614958785654 2.270161084673406 1.1033614958785654 2.277737549234436 1.1033614958785654 C 2.349713962564215 1.1033614958785654 2.4122197951927076 1.160184980086286 2.4122197951927076 1.2378437418368375 C 2.4122197951927076 1.3439142456912492 2.306149291338296 1.4386200527041169 2.194396439063112 1.4594553302469475 C 2.2076552520449138 1.3363377811302197 2.237961110289031 1.2264790449952931 2.25311403941109 1.1052556120188226" fill="url(#gradient-50c2b507-6f9c-408d-81d9-3069e67aa672)" transform="matrix(1,0,0,1,0,0)" fill-rule="nonzero"></path></g><g><path d=" M 0.43545072430279075 1.7445198093556789 A 1.309069085052888 1.309069085052888 0 0 1 3.053588894408567 1.7445198093556789 A 1.309069085052888 1.309069085052888 0 0 1 0.43545072430279097 1.7445198093556789 Z M 0.4854507243027908 1.744519809355679 A 1.2590690850528883 1.2590690850528883 0 0 0 3.0035888944085674 1.744519809355679 A 1.2590690850528883 1.2590690850528883 0 0 0 0.4854507243027908 1.744519809355679 Z" fill="#d56a34" fill-rule="nonzero"></path></g><g transform="matrix(-0.44472763801498094,-0.8956658573294038,0.8956658573294038,-0.44472763801498094,-3.3025212267050716,3.1625841456669375)"><g clip-path="url(#SvgjsClipPath80506)"><path d=" M -0.6706430331187689 2.7270019028669408 C -0.6524421402616261 2.7270019028669408 -0.642772915931269 2.7156263448312266 -0.642772915931269 2.6997005635812266 C -0.642772915931269 2.691168895054441 -0.644763638587519 2.6837747823312266 -0.6524421402616261 2.668417778983012 C -0.6632489203955547 2.6470886076660483 -0.6652396430518047 2.6402632728446194 -0.6672303657080547 2.620640435233012 C -0.6532953071143047 2.6220623799874767 -0.6413509711768046 2.625190658447298 -0.6313973578955547 2.6297408816615837 C -0.6058023523151975 2.641400828648191 -0.5984082395919832 2.644529107108012 -0.5876014594580548 2.644529107108012 C -0.5728132340116261 2.644529107108012 -0.5608688980741261 2.6345754938267625 -0.5608688980741261 2.6166589899205124 C -0.5608688980741261 2.5990268749651553 -0.5725288450607333 2.588788872733012 -0.5876014594580548 2.588788872733012 C -0.5961331279848404 2.588788872733012 -0.6066555191678762 2.591917151192834 -0.6194530219580547 2.5978893191615837 L -0.6313973578955547 2.603577098179441 C -0.6424885269803761 2.6086960992955124 -0.6544328629178762 2.6118243777553336 -0.6672303657080547 2.613246322509798 C -0.6652396430518047 2.5961829854562266 -0.6606894198375189 2.581110371058905 -0.6535796960651976 2.567459701416048 C -0.6464699722928762 2.554093420724084 -0.642772915931269 2.5427178626883693 -0.642772915931269 2.533617416259798 C -0.642772915931269 2.5188291908133693 -0.6513045844580547 2.5068848548758695 -0.6706430331187689 2.5068848548758695 C -0.6902658707303762 2.5068848548758695 -0.6990819282080547 2.5185448018624768 -0.6990819282080547 2.533617416259798 C -0.6990819282080547 2.5430022516392623 -0.6968068166009118 2.548974419608012 -0.6837249248598404 2.577413314697298 C -0.6791747016455547 2.587366927978548 -0.6760464231857333 2.599311263916048 -0.6746244784312689 2.613246322509798 C -0.688559537025019 2.6118243777553336 -0.7027789845696618 2.607558543491941 -0.7178515989669833 2.599880041817834 C -0.7326400614042042 2.5924859290946194 -0.7448687862925971 2.588788872733012 -0.7542536216720614 2.588788872733012 C -0.76904184711849 2.588788872733012 -0.78098618305599 2.5987424860142623 -0.78098618305599 2.6166589899205124 C -0.78098618305599 2.6345754938267625 -0.7693262360693829 2.644529107108012 -0.7542536216720614 2.644529107108012 C -0.7440156194399186 2.644529107108012 -0.7377590625202757 2.6422539955008695 -0.7104574862437689 2.6297408816615837 C -0.700503872962519 2.625190658447298 -0.688559537025019 2.6220623799874767 -0.6746244784312689 2.620640435233012 C -0.6766152010875189 2.6377037722865837 -0.6811654243018047 2.652776386683905 -0.6882751480741262 2.6664270563267625 C -0.6953848718464476 2.679793337018727 -0.6990819282080547 2.690884506103548 -0.6990819282080547 2.6997005635812266 C -0.6990819282080547 2.7153419558803336 -0.6894127038776976 2.7270019028669408 -0.6706430331187689 2.7270019028669408 Z" fill="#d56a34" transform="matrix(1,0,0,1,0,0)" fill-rule="nonzero"></path></g></g><g transform="matrix(0.44472763801498094,-0.8956658573294038,-0.8956658573294038,-0.44472763801498094,4.6431253995625354,7.4894577443408)"><g clip-path="url(#SvgjsClipPath80507)"><path d=" M 4.160258539455685 2.7270019028669408 C 4.178459432312828 2.7270019028669408 4.188128656643185 2.7156263448312266 4.188128656643185 2.6997005635812266 C 4.188128656643185 2.691168895054441 4.186137933986935 2.6837747823312266 4.178459432312828 2.668417778983012 C 4.1676526521789 2.6470886076660483 4.165661929522649 2.6402632728446194 4.1636712068663995 2.620640435233012 C 4.17760626546015 2.6220623799874767 4.18955060139765 2.625190658447298 4.1995042146789 2.6297408816615837 C 4.225099220259256 2.641400828648191 4.232493332982471 2.644529107108012 4.243300113116399 2.644529107108012 C 4.258088338562828 2.644529107108012 4.270032674500328 2.6345754938267625 4.270032674500328 2.6166589899205124 C 4.270032674500328 2.5990268749651553 4.258372727513721 2.588788872733012 4.243300113116399 2.588788872733012 C 4.234768444589614 2.588788872733012 4.224246053406578 2.591917151192834 4.2114485506163994 2.5978893191615837 L 4.1995042146789 2.603577098179441 C 4.188413045594078 2.6086960992955124 4.176468709656578 2.6118243777553336 4.1636712068663995 2.613246322509798 C 4.165661929522649 2.5961829854562266 4.170212152736935 2.581110371058905 4.177321876509256 2.567459701416048 C 4.184431600281578 2.554093420724084 4.188128656643185 2.5427178626883693 4.188128656643185 2.533617416259798 C 4.188128656643185 2.5188291908133693 4.1795969881163995 2.5068848548758695 4.160258539455685 2.5068848548758695 C 4.140635701844078 2.5068848548758695 4.1318196443663995 2.5185448018624768 4.1318196443663995 2.533617416259798 C 4.1318196443663995 2.5430022516392623 4.134094755973543 2.548974419608012 4.1471766477146135 2.577413314697298 C 4.1517268709289 2.587366927978548 4.1548551493887205 2.599311263916048 4.156277094143185 2.613246322509798 C 4.142342035549435 2.6118243777553336 4.128122588004792 2.607558543491941 4.11304997360747 2.599880041817834 C 4.09826151117025 2.5924859290946194 4.086032786281857 2.588788872733012 4.076647950902393 2.588788872733012 C 4.061859725455964 2.588788872733012 4.049915389518464 2.5987424860142623 4.049915389518464 2.6166589899205124 C 4.049915389518464 2.6345754938267625 4.061575336505071 2.644529107108012 4.076647950902393 2.644529107108012 C 4.086885953134535 2.644529107108012 4.093142510054179 2.6422539955008695 4.120444086330685 2.6297408816615837 C 4.130397699611935 2.625190658447298 4.142342035549435 2.6220623799874767 4.156277094143185 2.620640435233012 C 4.154286371486935 2.6377037722865837 4.149736148272649 2.652776386683905 4.142626424500328 2.6664270563267625 C 4.135516700728006 2.679793337018727 4.1318196443663995 2.690884506103548 4.1318196443663995 2.6997005635812266 C 4.1318196443663995 2.7153419558803336 4.141488868696756 2.7270019028669408 4.160258539455685 2.7270019028669408 Z" fill="#d56a34" transform="matrix(1,0,0,1,0,0)" fill-rule="nonzero"></path></g></g></g><defs><linearGradient id="gradient-2cc8f728-931d-45af-bc96-9303e8a94f14" y1="0" x1="0" y2="1" x2="1"><stop stop-color="#e9ae3f" offset="0"></stop><stop stop-color="#bd2949" offset="1"></stop></linearGradient><clipPath id="SvgjsClipPath80505"><path d=" M 0 0 h 3.489039618711358 v 3.489039618711358 h -3.489039618711358 Z"></path></clipPath><clipPath id="SvgjsClipPath80501ac34a537-6fba-4abb-bba0-d7b7be905906"><path d=" M 0 0.013956158474845437 L 3.489039618711358 0.013956158474845437 L 3.489039618711358 3.4750834602365126 L 0 3.4750834602365126 Z"></path></clipPath><linearGradient id="gradient-1d3624db-a632-4dc8-ba9c-bae40a1c8620_0" x1="0" x2="1" y1="0" y2="1"><stop stop-color="#e27d7a" offset="0"></stop><stop stop-color="#c9464b" offset="1"></stop></linearGradient><linearGradient id="gradient-1d3624db-a632-4dc8-ba9c-bae40a1c8620_1" x1="0" x2="1" y1="0" y2="1"><stop stop-color="#e37f7c" offset="0"></stop><stop stop-color="#ca484c" offset="1"></stop></linearGradient><linearGradient id="gradient-1d3624db-a632-4dc8-ba9c-bae40a1c8620_2" x1="0" x2="1" y1="0" y2="1"><stop stop-color="#e17a78" offset="0"></stop><stop stop-color="#c84449" offset="1"></stop></linearGradient><linearGradient id="gradient-50c2b507-6f9c-408d-81d9-3069e67aa672" x1="0" x2="1" y1="0" y2="1"><stop stop-color="#e9ae3f" offset="0"></stop><stop stop-color="#bd2949" offset="1"></stop></linearGradient><clipPath id="SvgjsClipPath80506"><path d=" M -0.836824531619048 2.439105488246405 h 0.33178710937500006 v 0.33178710937500006 h -0.33178710937500006 Z"></path></clipPath><clipPath id="SvgjsClipPath80507"><path d=" M 3.994077040955406 2.439105488246405 h 0.33178710937500006 v 0.33178710937500006 h -0.33178710937500006 Z"></path></clipPath></defs></svg>