<svg xmlns="http://www.w3.org/2000/svg" version="1.1" xmlns:xlink="http://www.w3.org/1999/xlink" xmlns:svgjs="http://svgjs.dev/svgjs" viewBox="0 0 9.145341796875 2.198759765625"><g transform="matrix(0.6993284796680291,0,0,0.6993284796680291,1.7054241317985808,0.7956432213551212)"><g transform="matrix(1,0,0,1,0,0)" clip-path="url(#SvgjsClipPath36042)"><g clip-path="url(#SvgjsClipPath3604098e83d2b-dc94-40b5-8aca-7f4263bdc3b7)"><path d=" M 4.656665334472657 0.9516117675781252 C 4.9637527368164065 0.9516117675781252 5.212694079589845 0.7009281738281251 5.212694079589845 0.39161595458984383 C 5.212694079589845 0.08230373535156249 4.9637527368164065 -0.1683861254882813 4.656665334472657 -0.1683861254882813 C 4.3495779321289065 -0.1683861254882813 4.100636589355469 0.08233507080078123 4.100636589355469 0.39161595458984383 C 4.100636589355469 0.7008968383789064 4.349584199218751 0.9516117675781252 4.656665334472657 0.9516117675781252 Z M 4.656665334472657 0.9705947827148439 C 4.974162373046876 0.9705947827148439 5.231539218750001 0.7113754125976564 5.231539218750001 0.39161595458984383 C 5.231539218750001 0.0718564965820312 4.974162373046876 -0.18736914062500004 4.656665334472657 -0.18736914062500004 C 4.339168295898438 -0.18736914062500004 4.081791450195313 0.07185022949218747 4.081791450195313 0.39161595458984383 C 4.081791450195313 0.7113816796875001 4.33915576171875 0.9705947827148439 4.656665334472657 0.9705947827148439 Z" fill="url(#gradient-1d3624db-a632-4dc8-ba9c-bae40a1c8620_0)" transform="matrix(1,0,0,1,0,0)" fill-rule="evenodd"></path></g><g clip-path="url(#SvgjsClipPath3604098e83d2b-dc94-40b5-8aca-7f4263bdc3b7)"><path d=" M 4.5718465405273445 0.9705947827148439 C 4.878933942871094 0.9705947827148439 5.1278752856445315 0.7199111889648437 5.1278752856445315 0.4105989697265625 C 5.1278752856445315 0.1012867504882812 4.878933942871095 -0.1494031103515625 4.5718465405273445 -0.1494031103515625 C 4.264759138183594 -0.1494031103515625 4.0158240625 0.1013180859375 4.0158240625 0.4105989697265625 C 4.0158240625 0.7198798535156251 4.264765405273438 0.9705947827148439 4.5718465405273445 0.9705947827148439 Z M 4.5718465405273445 0.9895777978515625 C 4.889343579101563 0.9895777978515625 5.146726691894532 0.7303584277343751 5.146726691894532 0.4105989697265625 C 5.146726691894532 0.09083951171874997 4.889343579101563 -0.1683861254882813 4.5718465405273445 -0.1683861254882813 C 4.254349501953126 -0.1683861254882813 3.9969726562500005 0.09083324462890624 3.9969726562500005 0.4105989697265625 C 3.9969726562500005 0.730364694824219 4.254355769042969 0.9895903320312502 4.5718465405273445 0.9895903320312502 Z" fill="url(#gradient-1d3624db-a632-4dc8-ba9c-bae40a1c8620_1)" transform="matrix(1,0,0,1,0,0)" fill-rule="evenodd"></path></g><g clip-path="url(#SvgjsClipPath3604098e83d2b-dc94-40b5-8aca-7f4263bdc3b7)"><path d=" M 4.6755167407226566 1.0370384692382815 C 4.982604143066407 1.0370384692382815 5.231539218750001 0.7863172729492189 5.231539218750001 0.4770363891601564 C 5.231539218750001 0.16775550537109388 4.9825978759765635 -0.08295942382812505 4.6755167407226566 -0.08295942382812505 C 4.3684356054687505 -0.08295942382812505 4.1194879956054695 0.16776177246093746 4.1194879956054695 0.4770363891601563 C 4.1194879956054695 0.7863110058593751 4.368429338378907 1.0370384692382815 4.6755167407226566 1.0370384692382815 Z M 4.6755167407226566 1.0560214843750002 C 4.993007512207032 1.0560214843750002 5.2503906250000005 0.7968021142578126 5.2503906250000005 0.4770363891601563 C 5.2503906250000005 0.1572706640624999 4.993007512207032 -0.10194870605468753 4.6755167407226566 -0.10194870605468753 C 4.358025969238282 -0.10194870605468753 4.100636589355469 0.15727693115234376 4.100636589355469 0.4770363891601563 C 4.100636589355469 0.7967958471679688 4.358019702148438 1.0560214843750002 4.6755167407226566 1.0560214843750002 Z" fill="url(#gradient-1d3624db-a632-4dc8-ba9c-bae40a1c8620_2)" transform="matrix(1,0,0,1,0,0)" fill-rule="evenodd"></path></g><path d=" M 4.627417141810596 0.3482491672361664 C 4.627417141810596 0.33395970401549047 4.614488579849032 0.31762888890614654 4.604281820405691 0.30878303072191854 C 4.600199116628356 0.2999371725376906 4.5763833445938955 0.2795236536510107 4.568217937039224 0.27680185113278666 C 4.564135233261887 0.2740800486145627 4.560732980114108 0.2713582460963387 4.5573307269663275 0.2713582460963387 C 4.5505262206707675 0.2679559929485587 4.5437217143752076 0.2652341904303347 4.538958559968315 0.2652341904303347 C 4.536236757450092 0.2652341904303347 4.532154053672755 0.26659509168944673 4.532154053672755 0.2699973448372267 C 4.532154053672755 0.27816275239189864 4.551206671300323 0.2985762712785786 4.5566502763367716 0.3128657344992545 C 4.565496134520999 0.33532060527460245 4.5695788382983356 0.35981682793861836 4.5695788382983356 0.38431305060263427 C 4.5695788382983356 0.4190160327099901 4.560732980114108 0.453719014817346 4.545082615634319 0.4816174906291419 C 4.539639010597872 0.468008478038022 4.526029998006751 0.43262504530111007 4.508338281638296 0.43262504530111007 C 4.5049360284905156 0.4285423415237741 4.499492423454067 0.42037693396910214 4.494729269047176 0.42037693396910214 C 4.493368367788064 0.42037693396910214 4.491327015899396 0.42105738459865816 4.489966114640284 0.4230987364873261 L 4.48384205897428 0.4230987364873261 C 4.469552595753604 0.4230987364873261 4.46002628693982 0.4278618908942181 4.46002628693982 0.444873156633118 C 4.46002628693982 0.454399465446902 4.464789441346712 0.463925774260686 4.46683079323538 0.4720911818153579 L 4.468872145124048 0.4775347868518059 C 4.477718003308276 0.5013505588862659 4.48724431212206 0.5251663309207257 4.493368367788064 0.5469407510665176 C 4.486563861492504 0.5503430042142976 4.4804398058265 0.5523843561029657 4.47363529953094 0.5523843561029657 C 4.464789441346712 0.5523843561029657 4.455943583162484 0.5489821029551857 4.448458626237368 0.5421775966596256 C 4.43961276805314 0.5299294853276177 4.43280826175758 0.5156400221069417 4.43280826175758 0.4999896576271538 L 4.43280826175758 0.49590695384981787 C 4.432127811128024 0.4897828981838139 4.431447360498468 0.4843392931473659 4.431447360498468 0.4788956881109179 C 4.431447360498468 0.3972416125641982 4.493368367788064 0.2795236536510107 4.559372078854995 0.2352943627298708 C 4.568217937039224 0.2318921095820908 4.5763833445938955 0.22848985643431086 4.584548752148567 0.22440715265697486 C 4.592033709073683 0.21964399825008288 4.604281820405691 0.2169221957318589 4.611086326701251 0.21147859069541092 C 4.6212930861445916 0.20603498565896294 4.624014888662815 0.20059138062251494 4.624014888662815 0.18970417054961897 C 4.622653987403703 0.17269290481071903 4.586590104037236 0.14819668214670312 4.560052529484552 0.14819668214670312 L 4.553248023188992 0.14819668214670312 C 4.41919924916646 0.14819668214670312 4.322575259769509 0.34756871660661043 4.322575259769509 0.45984307048335 C 4.322575259769509 0.4870610956655899 4.327338414176401 0.5135986702182738 4.338225624249296 0.5380948928822897 C 4.355236889988197 0.5864068875807655 4.406270687204896 0.6075008570970014 4.453902231273816 0.6075008570970014 C 4.47363529953094 0.6075008570970014 4.4920074665289516 0.6040986039492215 4.50765783100874 0.5972940976536615 C 4.519905942340748 0.6299557278723493 4.532154053672755 0.6701023150161532 4.55528937507766 0.7000421427166171 C 4.562774332002776 0.709568451530401 4.5702592889278915 0.7231774641215211 4.584548752148567 0.7245383653806331 C 4.585909653407679 0.725218816010189 4.587270554666792 0.725899266639745 4.588631455925904 0.725899266639745 C 4.589992357185015 0.725899266639745 4.590672807814571 0.725218816010189 4.592033709073683 0.7245383653806331 C 4.594755511591908 0.7245383653806331 4.596796863480575 0.7245383653806331 4.598157764739687 0.725899266639745 C 4.597477314110131 0.721816562862409 4.594755511591908 0.720455661603297 4.594755511591908 0.717053408455517 C 4.5954359622214636 0.717733859085073 4.596796863480575 0.717733859085073 4.597477314110131 0.717733859085073 C 4.597477314110131 0.717053408455517 4.596796863480575 0.715012056566849 4.596796863480575 0.714331605937293 C 4.596796863480575 0.714331605937293 4.598157764739687 0.715012056566849 4.598838215369243 0.715012056566849 L 4.6022404685170235 0.715012056566849 C 4.604962271035247 0.715012056566849 4.604281820405691 0.719775210973741 4.604962271035247 0.721816562862409 C 4.604962271035247 0.718414309714629 4.604962271035247 0.716372957825961 4.607003622923916 0.715692507196405 C 4.6083645241830276 0.715692507196405 4.6083645241830276 0.7129707046781811 4.6083645241830276 0.7129707046781811 C 4.6083645241830276 0.7109293527895131 4.607684073553472 0.708888000900845 4.607003622923916 0.7068466490121771 C 4.607003622923916 0.704805297123509 4.607003622923916 0.704805297123509 4.607684073553472 0.704805297123509 C 4.607684073553472 0.704805297123509 4.609725425442139 0.705485747753065 4.610405876071695 0.705485747753065 C 4.609725425442139 0.7061661983826211 4.609725425442139 0.7068466490121771 4.609725425442139 0.7075270996417331 C 4.609725425442139 0.7075270996417331 4.610405876071695 0.709568451530401 4.610405876071695 0.7102489021599571 C 4.610405876071695 0.7109293527895131 4.611766777330807 0.714331605937293 4.61312767858992 0.715692507196405 C 4.61312767858992 0.7136511553077372 4.613808129219476 0.7129707046781811 4.614488579849032 0.7122902540486251 L 4.6151690304785875 0.7122902540486251 C 4.615849481108143 0.7122902540486251 4.617210382367255 0.7116098034190691 4.617890832996811 0.7102489021599571 L 4.6219735367741475 0.7061661983826211 C 4.625375789921927 0.7027639452348411 4.627417141810596 0.6980007908279491 4.627417141810596 0.6932376364210571 C 4.627417141810596 0.6816699757186051 4.61993218488548 0.6680609631274852 4.615849481108143 0.6612564568319252 C 4.597477314110131 0.6265534747245695 4.581826949630344 0.5925309432467696 4.575022443334784 0.5585084117689696 C 4.611086326701251 0.5163204727364978 4.637623901253935 0.455760366706014 4.637623901253935 0.40132431634153415 C 4.637623901253935 0.3904371062686382 4.636262999994823 0.38023034682529827 4.6342216481061556 0.3700235873819583 C 4.6335411974766 0.3570950254203944 4.632180296217487 0.3550536735317264 4.627417141810596 0.3482491672361664 M 4.589992357185015 0.5149595714773858 C 4.590672807814571 0.5108768677000498 4.594755511591908 0.5061137132931578 4.5961164128510195 0.5020310095158218 C 4.593394610332796 0.5027114601453778 4.594755511591908 0.5061137132931578 4.591353258444127 0.5074746145522697 C 4.593394610332796 0.5027114601453778 4.596796863480575 0.49930920699759784 4.598157764739687 0.49522650322026185 C 4.599518665998799 0.49454605259070583 4.601560017887468 0.49318515133159385 4.601560017887468 0.49182425007248187 C 4.600879567257912 0.49182425007248187 4.600879567257912 0.49182425007248187 4.600199116628356 0.49182425007248187 C 4.607003622923916 0.4782152374813619 4.617210382367255 0.44691450852178605 4.61993218488548 0.4421513541148941 C 4.6212930861445916 0.43942955159667 4.6219735367741475 0.4353468478193341 4.623334438033259 0.4319445946715541 C 4.623334438033259 0.4367077490784461 4.6212930861445916 0.4421513541148941 4.620612635515036 0.44691450852178605 C 4.619251734255924 0.44691450852178605 4.620612635515036 0.451677662928678 4.615849481108143 0.454399465446902 C 4.614488579849032 0.461884422372018 4.614488579849032 0.468008478038022 4.611086326701251 0.4754934349631379 C 4.609725425442139 0.4782152374813619 4.607684073553472 0.48025658937002996 4.607684073553472 0.4843392931473659 C 4.602920919146579 0.4863806450360339 4.604962271035247 0.4911437994429259 4.6022404685170235 0.4938656019611498 C 4.599518665998799 0.5020310095158218 4.593394610332796 0.5074746145522697 4.589992357185015 0.5149595714773858 M 4.620612635515036 0.41697468082132216 C 4.620612635515036 0.42105738459865816 4.61993218488548 0.4237791871168821 4.61993218488548 0.4271814402646621 C 4.619251734255924 0.4271814402646621 4.618571283626367 0.4278618908942181 4.618571283626367 0.4285423415237741 C 4.618571283626367 0.4299032427828861 4.614488579849032 0.44623405789223003 4.613808129219476 0.44759495915134206 C 4.61312767858992 0.44963631104001006 4.612447227960363 0.45031676166956597 4.612447227960363 0.450997212299122 C 4.612447227960363 0.451677662928678 4.611086326701251 0.45644081733556996 4.609725425442139 0.457801718594682 C 4.611766777330807 0.44691450852178605 4.615849481108143 0.4353468478193341 4.617890832996811 0.42241828585777014 L 4.61993218488548 0.41085062515531817 C 4.620612635515036 0.4128919770439861 4.620612635515036 0.41493332893265417 4.620612635515036 0.41697468082132216 M 4.6022404685170235 0.5081550651818258 C 4.601560017887468 0.5081550651818258 4.602920919146579 0.5054332626636018 4.604281820405691 0.5027114601453778 C 4.604281820405691 0.49930920699759784 4.609725425442139 0.49726785510892985 4.609725425442139 0.49182425007248187 C 4.609725425442139 0.49318515133159385 4.612447227960363 0.4850197437769219 4.612447227960363 0.4843392931473659 C 4.613808129219476 0.4836588425178099 4.614488579849032 0.4816174906291419 4.6151690304785875 0.48025658937002996 C 4.613808129219476 0.48842199692470184 4.610405876071695 0.49794830573848586 4.604962271035247 0.5040723614044897 C 4.603601369776135 0.5067941639227138 4.602920919146579 0.5081550651818258 4.6022404685170235 0.5081550651818258 M 4.624014888662815 0.38431305060263427 C 4.624014888662815 0.38975665563908224 4.623334438033259 0.3958807113050862 4.623334438033259 0.40132431634153415 C 4.623334438033259 0.40132431634153415 4.623334438033259 0.40812882263709416 4.620612635515036 0.4088092732666502 C 4.6219735367741475 0.4006438657119782 4.622653987403703 0.39247845815730625 4.622653987403703 0.38431305060263427 C 4.622653987403703 0.3781889949366303 4.6219735367741475 0.3727453899001823 4.6212930861445916 0.3673017848637343 C 4.623334438033259 0.3734258405297383 4.624014888662815 0.3788694455661863 4.624014888662815 0.38431305060263427 M 4.617890832996811 0.47413253370402597 C 4.617890832996811 0.47277163244491394 4.61993218488548 0.46324532363112997 4.6219735367741475 0.46324532363112997 C 4.620612635515036 0.46664757677890994 4.620612635515036 0.4720911818153579 4.617890832996811 0.47481298433358193 C 4.617210382367255 0.4782152374813619 4.616529931737699 0.4788956881109179 4.6151690304785875 0.4788956881109179 C 4.6151690304785875 0.4761738855926939 4.615849481108143 0.47481298433358193 4.617890832996811 0.47413253370402597 M 4.841774705931081 0.35981682793861836 C 4.879199490556661 0.33804240779282646 4.9077784169980125 0.29381311687168654 4.9084588676275684 0.2563883322461067 L 4.9084588676275684 0.25366652972788273 C 4.9084588676275684 0.21828309699097087 4.879879941186217 0.1638470466264911 4.810473976971505 0.1638470466264911 C 4.810473976971505 0.15023803403537114 4.796184513750829 0.14275307711025514 4.770327389827701 0.14275307711025514 C 4.712489086315442 0.14275307711025514 4.711128185056329 0.16180569473782308 4.711128185056329 0.15976434284915508 C 4.705004129390325 0.1624861453673791 4.702282326872101 0.17337335544027505 4.702282326872101 0.17949741110627904 C 4.677105653578529 0.3135461851288105 4.643083122100729 0.450997212299122 4.643083122100729 0.5714369737305336 L 4.643083122100729 0.5768805787669815 C 4.643083122100729 0.6075008570970014 4.643763572730285 0.6435647404634692 4.664857542246521 0.6435647404634692 C 4.6614552890987415 0.6394820366861332 4.660774838469186 0.6374406847974654 4.660774838469186 0.6360797835383534 C 4.6614552890987415 0.6360797835383534 4.6682597953943015 0.6381211354270213 4.670981597912525 0.6408429379452453 C 4.670981597912525 0.6388015860565773 4.668940246023857 0.6374406847974654 4.6682597953943015 0.6367602341679094 C 4.670301147282969 0.6381211354270213 4.670981597912525 0.6394820366861332 4.672342499171638 0.6394820366861332 C 4.673022949801194 0.6394820366861332 4.676425202948973 0.6394820366861332 4.675744752319417 0.6388015860565773 C 4.673022949801194 0.6360797835383534 4.66689889413519 0.6306361785019053 4.666218443505634 0.6279143759836813 C 4.670981597912525 0.6279143759836813 4.676425202948973 0.6394820366861332 4.6811883573558655 0.6408429379452453 C 4.68050790672631 0.6388015860565773 4.679827456096754 0.6360797835383534 4.677786104208085 0.6340384316496853 C 4.68050790672631 0.6340384316496853 4.682549258614977 0.6353993329087974 4.685271061133202 0.6367602341679094 C 4.683910159874089 0.6340384316496853 4.6811883573558655 0.6326775303905733 4.6811883573558655 0.6299557278723493 C 4.681868807985421 0.6285948266132373 4.684590610503645 0.6272339253541253 4.687992863651425 0.6272339253541253 C 4.692756018058318 0.6319970797610174 4.695477820576541 0.6340384316496853 4.696838721835653 0.6340384316496853 C 4.698880073724322 0.6340384316496853 4.699560524353878 0.6313166291314614 4.699560524353878 0.6299557278723493 C 4.703643228131213 0.6306361785019053 4.713849987574553 0.6347188822792413 4.715891339463221 0.6347188822792413 C 4.715891339463221 0.6347188822792413 4.710447734426773 0.6306361785019053 4.710447734426773 0.6292752772427933 C 4.710447734426773 0.6292752772427933 4.713849987574553 0.6306361785019053 4.714530438204109 0.6306361785019053 C 4.714530438204109 0.6306361785019053 4.713849987574553 0.6292752772427933 4.713849987574553 0.6285948266132373 C 4.714530438204109 0.6285948266132373 4.715210888833665 0.6299557278723493 4.717252240722333 0.6299557278723493 C 4.717932691351889 0.6299557278723493 4.726778549536117 0.6326775303905733 4.731541703943009 0.6326775303905733 C 4.731541703943009 0.6319970797610174 4.732222154572566 0.6313166291314614 4.7329026052021215 0.6313166291314614 C 4.73834621023857 0.6313166291314614 4.742428914015905 0.6313166291314614 4.742428914015905 0.6265534747245695 C 4.742428914015905 0.6265534747245695 4.750594321570577 0.6313166291314614 4.754677025347913 0.6313166291314614 C 4.749913870941021 0.6265534747245695 4.743109364645461 0.6115835608743374 4.743109364645461 0.6006963508014415 C 4.743109364645461 0.5979745482832175 4.743789815275017 0.5966136470241055 4.744470265904573 0.5932113938763255 C 4.744470265904573 0.5986549989127735 4.746511617793241 0.6163467152812294 4.751274772200134 0.6204294190585654 C 4.751274772200134 0.6197489684290094 4.756718377236581 0.6279143759836813 4.7587597291252495 0.6285948266132373 C 4.751274772200134 0.6190685177994534 4.750594321570577 0.6027377026901095 4.750594321570577 0.5870873382103214 L 4.750594321570577 0.5755196775078695 C 4.750594321570577 0.5707565231009776 4.750594321570577 0.5687151712123095 4.7519552228296895 0.5639520168054175 C 4.752635673459245 0.5653129180645295 4.760120630384361 0.5653129180645295 4.761481531643473 0.5666738193236416 C 4.761481531643473 0.5666738193236416 4.756718377236581 0.5673542699531976 4.756718377236581 0.5693956218418655 C 4.759440179754805 0.5680347205827536 4.762161982273029 0.5680347205827536 4.766244686050365 0.5680347205827536 C 4.766244686050365 0.5693956218418655 4.764203334161697 0.5700760724714216 4.762842432902585 0.5707565231009776 C 4.761481531643473 0.5707565231009776 4.760801081013917 0.5721174243600895 4.760801081013917 0.5727978749896456 L 4.766925136679921 0.5700760724714216 C 4.768966488568589 0.5700760724714216 4.768966488568589 0.5734783256192015 4.770327389827701 0.5734783256192015 C 4.773729642975481 0.5734783256192015 4.774410093605037 0.5741587762487577 4.777131896123261 0.5755196775078695 C 4.775090544234593 0.5762001281374256 4.774410093605037 0.5768805787669815 4.774410093605037 0.5768805787669815 C 4.774410093605037 0.5768805787669815 4.776451445493705 0.5802828319147615 4.780534149271041 0.5802828319147615 C 4.781214599900597 0.5802828319147615 4.782575501159709 0.5802828319147615 4.783936402418821 0.5796023812852056 C 4.785297303677933 0.5789219306556496 4.786658204937045 0.5775610293965375 4.787338655566601 0.5775610293965375 C 4.789380007455269 0.5775610293965375 4.787338655566601 0.5796023812852056 4.790060458084825 0.5802828319147615 C 4.790060458084825 0.5816437331738735 4.790740908714381 0.5823241838034295 4.790740908714381 0.5823241838034295 C 4.788699556825713 0.5823241838034295 4.788699556825713 0.5830046344329856 4.788699556825713 0.5836850850625415 C 4.788699556825713 0.5843655356920976 4.792101809973493 0.5823241838034295 4.794143161862161 0.5823241838034295 C 4.795504063121273 0.5823241838034295 4.796184513750829 0.5830046344329856 4.796184513750829 0.5843655356920976 C 4.798906316269053 0.5836850850625415 4.800947668157721 0.5830046344329856 4.802989020046389 0.5830046344329856 C 4.804349921305501 0.5830046344329856 4.795504063121273 0.5877677888398776 4.791421359343937 0.5884482394694335 L 4.796184513750829 0.5884482394694335 C 4.797545415009941 0.5884482394694335 4.799586766898609 0.5891286900989895 4.800267217528165 0.5898091407285455 C 4.805030371935057 0.5884482394694335 4.808432625082837 0.5877677888398776 4.8111544276010605 0.5877677888398776 C 4.8111544276010605 0.5877677888398776 4.813876230119285 0.5884482394694335 4.819319835155733 0.5884482394694335 C 4.843816057819749 0.5884482394694335 4.915943824552684 0.5796023812852056 4.936357343439364 0.4870610956655899 L 4.936357343439364 0.4850197437769219 C 4.935676892809808 0.4850197437769219 4.930913738402917 0.5033919107749338 4.926831034625581 0.5047528120340459 C 4.93023328777336 0.4938656019611498 4.9343159915506964 0.48229794125869785 4.9343159915506964 0.47073028055624594 C 4.9343159915506964 0.450997212299122 4.9275114852551365 0.43262504530111007 4.915263373923128 0.41357242767354213 C 4.928872386514248 0.4305836934124421 4.936357343439364 0.450997212299122 4.93703779406892 0.4782152374813619 C 4.93703779406892 0.4754934349631379 4.938398695328033 0.4720911818153579 4.938398695328033 0.46936937929713396 C 4.938398695328033 0.4128919770439861 4.8955303056660044 0.3747867417888503 4.841774705931081 0.35981682793861836 M 4.873075434890657 0.468008478038022 C 4.868312280483765 0.5156400221069417 4.813195779489729 0.5421775966596256 4.752635673459245 0.5428580472891817 C 4.757398827866137 0.4925047007020379 4.7648837847912535 0.4482754097808981 4.772368741716369 0.4006438657119782 C 4.775770994864149 0.4006438657119782 4.779173248011929 0.3999634150824222 4.782575501159709 0.3999634150824222 C 4.8302070452286285 0.3999634150824222 4.873075434890657 0.4292227921533301 4.873075434890657 0.46324532363112997 M 4.806391273194169 0.2046740843998509 C 4.809793526341949 0.20399363377029495 4.812515328860173 0.20399363377029495 4.815237131378397 0.20399363377029495 C 4.841094255301525 0.20399363377029495 4.863549126076872 0.22440715265697486 4.863549126076872 0.2523056284687708 C 4.863549126076872 0.2904108637239066 4.825443890821737 0.32443339520170644 4.785297303677933 0.3319183521268224 C 4.790060458084825 0.2876890612056826 4.800947668157721 0.24822292469143475 4.806391273194169 0.2046740843998509" fill="url(#gradient-50c2b507-6f9c-408d-81d9-3069e67aa672)" transform="matrix(1,0,0,1,0,0)" fill-rule="nonzero"></path></g><g><path d=" M 0.05029296875 0.3730468750000001 Q 0.05029296875 0.2905273437500001 0.07666015625 0.2219238281250001 Q 0.10302734375 0.1533203125000001 0.1552734375 0.10400390625000011 Q 0.20751953125 0.05468750000000011 0.28564453125 0.02734375000000011 Q 0.36376953125 1.1102230246251565e-16 0.46728515625 1.1102230246251565e-16 Q 0.5703125 1.1102230246251565e-16 0.6484375 0.02734375000000011 Q 0.7265625 0.05468750000000011 0.77880859375 0.10400390625000011 Q 0.8310546875 0.1533203125000001 0.857421875 0.2219238281250001 Q 0.8837890625 0.2905273437500001 0.8837890625 0.3730468750000001 Q 0.8837890625 0.4370117187500001 0.868408203125 0.4924316406250001 Q 0.85302734375 0.5478515625000001 0.82275390625 0.5927734375000001 Q 0.79248046875 0.6376953125000001 0.746826171875 0.6708984375000001 Q 0.701171875 0.7041015625000001 0.64111328125 0.7236328125000001 Q 0.6650390625 0.7314453125000001 0.7021484375 0.7348632812500001 Q 0.7392578125 0.7382812500000001 0.794921875 0.7377929687500001 L 0.8837890625 0.7377929687500001 L 0.81005859375 0.8686523437500001 Q 0.74853515625 0.8686523437500001 0.697998046875 0.8615722656250001 Q 0.6474609375 0.8544921875000001 0.606689453125 0.8398437500000001 Q 0.56591796875 0.8251953125000001 0.533935546875 0.8024902343750001 Q 0.501953125 0.7797851562500001 0.47705078125 0.7485351562500001 L 0.46728515625 0.7485351562500001 Q 0.36376953125 0.7485351562500001 0.28564453125 0.7211914062500001 Q 0.20751953125 0.6938476562500001 0.1552734375 0.6445312500000001 Q 0.10302734375 0.5952148437500001 0.07666015625 0.5258789062500001 Q 0.05029296875 0.4565429687500001 0.05029296875 0.3730468750000001 M 0.46728515625 0.6474609375000001 Q 0.49658203125 0.6474609375000001 0.51904296875 0.6372070312500001 Q 0.54150390625 0.6269531250000001 0.556640625 0.5971679687500001 Q 0.57177734375 0.5673828125000001 0.57958984375 0.5136718750000001 Q 0.58740234375 0.4599609375000001 0.58740234375 0.3730468750000001 Q 0.58740234375 0.2871093750000001 0.57958984375 0.2338867187500001 Q 0.57177734375 0.1806640625000001 0.556640625 0.1513671875000001 Q 0.54150390625 0.12207031250000011 0.51904296875 0.11181640625000011 Q 0.49658203125 0.10156250000000011 0.46728515625 0.10156250000000011 Q 0.43798828125 0.10156250000000011 0.415283203125 0.11181640625000011 Q 0.392578125 0.12207031250000011 0.37744140625 0.1513671875000001 Q 0.3623046875 0.1806640625000001 0.3544921875 0.2338867187500001 Q 0.3466796875 0.2871093750000001 0.3466796875 0.3730468750000001 Q 0.3466796875 0.4599609375000001 0.3544921875 0.5136718750000001 Q 0.3623046875 0.5673828125000001 0.37744140625 0.5971679687500001 Q 0.392578125 0.6269531250000001 0.415283203125 0.6372070312500001 Q 0.43798828125 0.6474609375000001 0.46728515625 0.6474609375000001 M 1.02490234375 0.011718750000000111 L 1.30712890625 0.011718750000000111 L 1.30712890625 0.4726562500000001 Q 1.30712890625 0.5117187500000001 1.317626953125 0.5402832031250001 Q 1.328125 0.5688476562500001 1.346923828125 0.5876464843750001 Q 1.36572265625 0.6064453125000001 1.39111328125 0.6157226562500001 Q 1.41650390625 0.6250000000000001 1.44580078125 0.6250000000000001 Q 1.47802734375 0.6250000000000001 1.503662109375 0.6157226562500001 Q 1.529296875 0.6064453125000001 1.54736328125 0.5874023437500001 Q 1.5654296875 0.5683593750000001 1.5751953125 0.5395507812500001 Q 1.5849609375 0.5107421875000001 1.5849609375 0.4716796875000001 L 1.5849609375 0.011718750000000111 L 1.6923828125 0.011718750000000111 L 1.6923828125 0.4550781250000001 Q 1.6923828125 0.5224609375000001 1.670654296875 0.5766601562500001 Q 1.64892578125 0.6308593750000001 1.60888671875 0.6691894531250001 Q 1.56884765625 0.7075195312500001 1.51220703125 0.7280273437500001 Q 1.45556640625 0.7485351562500001 1.3857421875 0.7485351562500001 Q 1.29052734375 0.7485351562500001 1.22216796875 0.7282714843750001 Q 1.15380859375 0.7080078125000001 1.10986328125 0.6701660156250001 Q 1.06591796875 0.6323242187500001 1.04541015625 0.5786132812500001 Q 1.02490234375 0.5249023437500001 1.02490234375 0.4575195312500001 L 1.02490234375 0.011718750000000111 M 1.8408203125 0.011718750000000111 L 2.12353515625 0.011718750000000111 L 2.123046875 0.7373046875000001 L 1.8408203125 0.7373046875000001 L 1.8408203125 0.011718750000000111 M 2.2666015625 0.3750000000000001 Q 2.2666015625 0.3232421875000001 2.280029296875 0.2751464843750001 Q 2.29345703125 0.2270507812500001 2.3193359375 0.1855468750000001 Q 2.34521484375 0.1440429687500001 2.3828125 0.10986328125000011 Q 2.42041015625 0.07568359375000011 2.468505859375 0.05126953125000011 Q 2.5166015625 0.02685546875000011 2.57470703125 0.013427734375000111 Q 2.6328125 1.1102230246251565e-16 2.69970703125 1.1102230246251565e-16 Q 2.74267578125 1.1102230246251565e-16 2.781982421875 0.005371093750000111 Q 2.8212890625 0.010742187500000111 2.85595703125 0.02026367187500011 Q 2.890625 0.02978515625000011 2.920166015625 0.04223632812500011 Q 2.94970703125 0.05468750000000011 2.9736328125 0.06835937500000011 L 2.931640625 0.1503906250000001 Q 2.904296875 0.1372070312500001 2.869384765625 0.1281738281250001 Q 2.83447265625 0.11914062500000011 2.796875 0.11914062500000011 Q 2.74658203125 0.11914062500000011 2.70361328125 0.1372070312500001 Q 2.66064453125 0.1552734375000001 2.62939453125 0.1884765625000001 Q 2.59814453125 0.2216796875000001 2.580322265625 0.2687988281250001 Q 2.5625 0.3159179687500001 2.5625 0.3745117187500001 Q 2.5625 0.4326171875000001 2.580078125 0.4797363281250001 Q 2.59765625 0.5268554687500001 2.628662109375 0.5603027343750001 Q 2.65966796875 0.5937500000000001 2.702392578125 0.6120605468750001 Q 2.7451171875 0.6303710937500001 2.794921875 0.6303710937500001 Q 2.830078125 0.6303710937500001 2.865234375 0.6218261718750001 Q 2.900390625 0.6132812500000001 2.9296875 0.5991210937500001 L 2.9716796875 0.6811523437500001 Q 2.94775390625 0.6953125000000001 2.91845703125 0.7075195312500001 Q 2.88916015625 0.7197265625000001 2.85498046875 0.7292480468750001 Q 2.82080078125 0.7387695312500001 2.78173828125 0.7441406250000001 Q 2.74267578125 0.7495117187500001 2.69970703125 0.7495117187500001 Q 2.599609375 0.7495117187500001 2.519287109375 0.7199707031250001 Q 2.43896484375 0.6904296875000001 2.3828125 0.6394042968750001 Q 2.32666015625 0.5883789062500001 2.296630859375 0.5202636718750001 Q 2.2666015625 0.4521484375000001 2.2666015625 0.3750000000000001 M 3.0859375 0.011718750000000111 L 3.3681640625 0.011718750000000111 L 3.3681640625 0.4321289062500001 L 3.68212890625 0.011718750000000111 L 3.8232421875 0.011718750000000111 L 3.591796875 0.3232421875000001 L 3.89501953125 0.7377929687500001 L 3.5771484375 0.7377929687500001 L 3.4150390625 0.5097656250000001 L 3.3681640625 0.5742187500000001 L 3.3681640625 0.7373046875000001 L 3.0859375 0.7373046875000001 L 3.0859375 0.011718750000000111" fill="url(#gradient-2cc8f728-931d-45af-bc96-9303e8a94f14)" fill-rule="nonzero"></path></g><g><path d=" M 5.4431640625 0.011718750000000111 L 5.826953125 0.011718750000000111 Q 5.9080078125 0.011718750000000111 5.968798828125 0.02539062500000011 Q 6.02958984375 0.03906250000000011 6.070361328125 0.06420898437500011 Q 6.1111328125 0.08935546875000011 6.131640625 0.12475585937500011 Q 6.1521484375 0.1601562500000001 6.1521484375 0.2036132812500001 Q 6.1521484375 0.2470703125000001 6.127978515625 0.2854003906250001 Q 6.10380859375 0.3237304687500001 6.057421875 0.3515625000000001 Q 6.13359375 0.3735351562500001 6.17119140625 0.4160156250000001 Q 6.2087890625 0.4584960937500001 6.2087890625 0.5200195312500001 Q 6.2087890625 0.5620117187500001 6.188525390625 0.6010742187500001 Q 6.16826171875 0.6401367187500001 6.127978515625 0.6704101562500001 Q 6.0876953125 0.7006835937500001 6.0271484375 0.7189941406250001 Q 5.9666015625 0.7373046875000001 5.885546875 0.7373046875000001 L 5.4431640625 0.7373046875000001 L 5.4431640625 0.011718750000000111 M 5.7556640625 0.3066406250000001 Q 5.795703125 0.3066406250000001 5.823046875 0.2990722656250001 Q 5.850390625 0.2915039062500001 5.866748046875 0.2783203125000001 Q 5.88310546875 0.2651367187500001 5.890185546875 0.2480468750000001 Q 5.897265625 0.2309570312500001 5.897265625 0.2124023437500001 Q 5.897265625 0.1938476562500001 5.890185546875 0.1767578125000001 Q 5.88310546875 0.1596679687500001 5.866748046875 0.1467285156250001 Q 5.850390625 0.1337890625000001 5.823046875 0.1259765625000001 Q 5.795703125 0.11816406250000011 5.7556640625 0.11816406250000011 L 5.72587890625 0.11816406250000011 L 5.725390625 0.3066406250000001 L 5.7556640625 0.3066406250000001 M 5.7556640625 0.6308593750000001 Q 5.79912109375 0.6308593750000001 5.82890625 0.6215820312500001 Q 5.85869140625 0.6123046875000001 5.87724609375 0.5961914062500001 Q 5.89580078125 0.5800781250000001 5.9041015625 0.5583496093750001 Q 5.91240234375 0.5366210937500001 5.91240234375 0.5117187500000001 Q 5.91240234375 0.4897460937500001 5.90361328125 0.4687500000000001 Q 5.89482421875 0.4477539062500001 5.877490234375 0.4313964843750001 Q 5.86015625 0.4150390625000001 5.834765625 0.4050292968750001 Q 5.809375 0.3950195312500001 5.776171875 0.3950195312500001 L 5.725390625 0.3950195312500001 L 5.725390625 0.6308593750000001 L 5.7556640625 0.6308593750000001 M 6.3435546875 0.011718750000000111 L 6.62626953125 0.011718750000000111 L 6.62578125 0.7373046875000001 L 6.3435546875 0.7373046875000001 L 6.3435546875 0.011718750000000111 M 6.9392578125 0.12304687500000011 L 6.7322265625 0.12304687500000011 L 6.7322265625 0.011230468750000111 L 7.428515625 0.011230468750000111 L 7.428515625 0.12304687500000011 L 7.221484375 0.12304687500000011 L 7.221484375 0.7373046875000001 L 6.9392578125 0.7373046875000001 L 6.9392578125 0.12304687500000011 M 7.53447265625 0.011718750000000111 L 8.14775390625 0.011718750000000111 L 8.14775390625 0.12353515625000011 L 7.8171875 0.12353515625000011 L 7.81669921875 0.3193359375000001 L 8.06962890625 0.3193359375000001 L 8.06962890625 0.4311523437500001 L 7.81669921875 0.4311523437500001 L 7.81669921875 0.6254882812500001 L 8.14775390625 0.6254882812500001 L 8.14775390625 0.7373046875000001 L 7.53447265625 0.7373046875000001 L 7.53447265625 0.011718750000000111" fill="url(#gradient-2cc8f728-931d-45af-bc96-9303e8a94f14)" fill-rule="nonzero"></path></g><g></g></g><defs><clipPath id="SvgjsClipPath36042"><path d=" M 3.99697265625 -0.19238281250000006 h 1.2534179687500002 v 1.2534179687500002 h -1.2534179687500002 Z"></path></clipPath><clipPath id="SvgjsClipPath3604098e83d2b-dc94-40b5-8aca-7f4263bdc3b7"><path d=" M 3.9969726562500005 -0.18736914062500004 L 5.2503906250000005 -0.18736914062500004 L 5.2503906250000005 1.0560214843750002 L 3.9969726562500005 1.0560214843750002 Z"></path></clipPath><linearGradient id="gradient-1d3624db-a632-4dc8-ba9c-bae40a1c8620_0" x1="0" x2="1" y1="0" y2="1"><stop stop-color="#e27d7a" offset="0"></stop><stop stop-color="#c9464b" offset="1"></stop></linearGradient><linearGradient id="gradient-1d3624db-a632-4dc8-ba9c-bae40a1c8620_1" x1="0" x2="1" y1="0" y2="1"><stop stop-color="#e37f7c" offset="0"></stop><stop stop-color="#ca484c" offset="1"></stop></linearGradient><linearGradient id="gradient-1d3624db-a632-4dc8-ba9c-bae40a1c8620_2" x1="0" x2="1" y1="0" y2="1"><stop stop-color="#e17a78" offset="0"></stop><stop stop-color="#c84449" offset="1"></stop></linearGradient><linearGradient id="gradient-50c2b507-6f9c-408d-81d9-3069e67aa672" x1="0" x2="1" y1="0" y2="1"><stop stop-color="#e9ae3f" offset="0"></stop><stop stop-color="#bd2949" offset="1"></stop></linearGradient><linearGradient id="gradient-2cc8f728-931d-45af-bc96-9303e8a94f14" y1="0" x1="0" y2="1" x2="1"><stop stop-color="#e9ae3f" offset="0"></stop><stop stop-color="#bd2949" offset="1"></stop></linearGradient></defs></svg>