<svg xmlns="http://www.w3.org/2000/svg" version="1.1" xmlns:xlink="http://www.w3.org/1999/xlink" xmlns:svgjs="http://svgjs.dev/svgjs" viewBox="0 0 14.856027782545382 3.881320751295384"><g transform="matrix(0.7131154309253828,0,0,0.7131154309253828,4.627312941179954,1.5463228631852914)"><g transform="matrix(1,0,0,1,0,0)" clip-path="url(#SvgjsClipPath87628)"><g clip-path="url(#SvgjsClipPath87626710d3c48-bf26-4367-951f-29bd5c16b23e)"><path d=" M -1.4988900083896568 1.510390944691598 C -0.9305206235548702 1.510390944691598 -0.46977024183227023 1.0464159366632004 -0.46977024183227023 0.4739287736321619 C -0.46977024183227023 -0.09855838939887675 -0.9305206235548702 -0.5625449968024747 -1.4988900083896568 -0.5625449968024747 C -2.0672593932244436 -0.5625449968024747 -2.5280097749470434 -0.09850039252287322 -2.5280097749470434 0.4739287736321619 C -2.5280097749470434 1.046357939787197 -2.067247793849243 1.510390944691598 -1.4988900083896568 1.510390944691598 Z M -1.4988900083896568 1.545525452174548 C -0.911254061346491 1.545525452174548 -0.434890920603735 1.0657520951227841 -0.434890920603735 0.4739287736321619 C -0.434890920603735 -0.11789454785846026 -0.911254061346491 -0.597679504285425 -1.4988900083896568 -0.597679504285425 C -2.0865259554328226 -0.597679504285425 -2.5628890961755784 -0.11790614723366094 -2.5628890961755784 0.4739287736321619 C -2.5628890961755784 1.065763694497985 -2.086549154183224 1.545525452174548 -1.4988900083896568 1.545525452174548 Z" fill="url(#gradient-1d3624db-a632-4dc8-ba9c-bae40a1c8620_0)" transform="matrix(1,0,0,1,0,0)" fill-rule="evenodd"></path></g><g clip-path="url(#SvgjsClipPath87626710d3c48-bf26-4367-951f-29bd5c16b23e)"><path d=" M -1.655875952356065 1.545525452174548 C -1.0875065675212787 1.545525452174548 -0.6267561857986785 1.081550444146151 -0.6267561857986785 0.5090632811151122 C -0.6267561857986785 -0.06342388191592643 -1.0875065675212783 -0.5274104893195243 -1.655875952356065 -0.5274104893195243 C -2.224245337190852 -0.5274104893195243 -2.684984119538251 -0.06336588503992283 -2.684984119538251 0.5090632811151122 C -2.684984119538251 1.0814924472701475 -2.224233737815651 1.545525452174548 -1.655875952356065 1.545525452174548 Z M -1.655875952356065 1.5806599596574982 C -1.0682400053128995 1.5806599596574982 -0.5918652651949432 1.1008866026057342 -0.5918652651949432 0.5090632811151122 C -0.5918652651949432 -0.08276004037550985 -1.0682400053128995 -0.5625449968024747 -1.655875952356065 -0.5625449968024747 C -2.243511899399231 -0.5625449968024747 -2.7198750401419867 -0.08277163975071053 -2.7198750401419867 0.5090632811151122 C -2.7198750401419867 1.100898201980935 -2.24350030002403 1.5806831584079002 -1.655875952356065 1.5806831584079002 Z" fill="url(#gradient-1d3624db-a632-4dc8-ba9c-bae40a1c8620_1)" transform="matrix(1,0,0,1,0,0)" fill-rule="evenodd"></path></g><g clip-path="url(#SvgjsClipPath87626710d3c48-bf26-4367-951f-29bd5c16b23e)"><path d=" M -1.4639990877859212 1.6685020280524747 C -0.8956297029511346 1.6685020280524747 -0.434890920603735 1.2044574237728733 -0.434890920603735 0.6320282576178384 C -0.434890920603735 0.0595990914628034 -0.8956413023263352 -0.4044339134415976 -1.4639990877859212 -0.4044339134415976 C -2.0323568732455075 -0.4044339134415976 -2.493118854343308 0.05961069083800377 -2.493118854343308 0.6320282576178382 C -2.493118854343308 1.2044458243976726 -2.032368472620708 1.6685020280524747 -1.4639990877859212 1.6685020280524747 Z M -1.4639990877859212 1.7036365355354253 C -0.8763747401179565 1.7036365355354253 -0.40000000000000013 1.2238631784836609 -0.40000000000000013 0.6320282576178382 C -0.40000000000000013 0.040193336752015266 -0.876374740117956 -0.43958002029974874 -1.4639990877859212 -0.43958002029974874 C -2.0516234354538865 -0.43958002029974874 -2.5280097749470434 0.04020493612721615 -2.5280097749470434 0.6320282576178382 C -2.5280097749470434 1.2238515791084605 -2.0516350348290873 1.7036365355354253 -1.4639990877859212 1.7036365355354253 Z" fill="url(#gradient-1d3624db-a632-4dc8-ba9c-bae40a1c8620_2)" transform="matrix(1,0,0,1,0,0)" fill-rule="evenodd"></path></g><path d=" M -1.5530237082548721 0.39366382605583783 C -1.5530237082548721 0.36721632818269634 -1.5769523968067625 0.3369906163276774 -1.5958434667161492 0.3206183557395421 C -1.603399894679904 0.3042460951514068 -1.6474790578018066 0.26646395533263323 -1.662591913729316 0.2614263366901301 C -1.6701483416930707 0.2563887180476269 -1.6764453649961997 0.2513510994051238 -1.6827423882993287 0.2513510994051238 C -1.6953364349055864 0.2450540761019948 -1.7079304815118443 0.24001645745949163 -1.716746314136225 0.24001645745949163 C -1.7217839327787279 0.24001645745949163 -1.7293403607424827 0.24253526678074327 -1.7293403607424827 0.24883229008387214 C -1.7293403607424827 0.2639451460113816 -1.6940770302449606 0.30172728583015535 -1.6840017929599544 0.32817478370329684 C -1.667629532371819 0.3697351375039479 -1.6600731044080643 0.4150737052864763 -1.6600731044080643 0.4604122730690047 C -1.6600731044080643 0.5246419107609199 -1.6764453649961997 0.5888715484528351 -1.7054116721905928 0.6405071395384925 C -1.7154869094755991 0.6153190463259767 -1.7406750026881148 0.5498300039734356 -1.7734195238643853 0.5498300039734356 C -1.7797165471675143 0.5422735760096808 -1.7897917844525206 0.5271607200821715 -1.7986076170769012 0.5271607200821715 C -1.8011264263981528 0.5271607200821715 -1.80490464038003 0.5284201247427973 -1.8074234497012815 0.5321983387246746 L -1.8187580916469137 0.5321983387246746 C -1.8452055895200554 0.5321983387246746 -1.8628372547688163 0.5410141713490552 -1.8628372547688163 0.5724992878646998 C -1.8628372547688163 0.5901309531134609 -1.8540214221444358 0.607762618362222 -1.8502432081625586 0.6228754742897313 L -1.846464994180681 0.6329507115747377 C -1.8300927335925459 0.6770298746966403 -1.8124610683437847 0.721109037818543 -1.8011264263981528 0.7614099869585682 C -1.8137204730044107 0.7677070102616972 -1.8250551149500427 0.7714852242435745 -1.8376491615563006 0.7714852242435745 C -1.8540214221444358 0.7714852242435745 -1.8703936827325711 0.7651882009404456 -1.8842471339994549 0.7525941543341876 C -1.90061939458759 0.7299248704429234 -1.913213441193848 0.7034773725697818 -1.913213441193848 0.6745110653753887 L -1.913213441193848 0.6669546374116341 C -1.9144728458544737 0.6556199954660019 -1.9157322505150995 0.6455447581809957 -1.9157322505150995 0.6354695208959893 C -1.9157322505150995 0.4843409616208947 -1.8011264263981528 0.26646395533263323 -1.6789641743174513 0.18460265239195695 C -1.662591913729316 0.17830562908882797 -1.6474790578018066 0.1720086057856991 -1.632366201874297 0.1644521778219443 C -1.6185127506074133 0.1556363451975638 -1.5958434667161492 0.15059872655506065 -1.5832494201098912 0.14052348927005434 C -1.5643583502005045 0.13044825198504803 -1.5593207315580013 0.12037301470004172 -1.5593207315580013 0.1002225401300291 C -1.561839540879253 0.06873742361438435 -1.6285879878924197 0.02339885583185595 -1.6777047696568255 0.02339885583185595 L -1.6902988162630832 0.02339885583185595 C -1.9384015344063636 0.02339885583185595 -2.1172369962152255 0.39240442139521214 -2.1172369962152255 0.6002061903984672 C -2.1172369962152255 0.6505823768234987 -2.108421163590845 0.6996991585879045 -2.0882706890208325 0.745037726370433 C -2.056785572505188 0.8344554572748639 -1.9623302229582538 0.8734970017542634 -1.8741718967144485 0.8734970017542634 C -1.8376491615563006 0.8734970017542634 -1.8036452357194044 0.8671999784511345 -1.774678928525011 0.8546059318448765 C -1.752009644633747 0.9150573555549144 -1.7293403607424827 0.989362230531836 -1.686520602281206 1.0447760355993707 C -1.6726671510143223 1.0624077008481314 -1.6588136997474385 1.0875957940606473 -1.632366201874297 1.090114603381899 C -1.6298473925530454 1.091374008042525 -1.6273285832317939 1.0926334127031505 -1.6248097739105423 1.0926334127031505 C -1.6222909645892907 1.0926334127031505 -1.621031559928665 1.091374008042525 -1.6185127506074133 1.090114603381899 C -1.61347513196491 1.090114603381899 -1.6096969179830327 1.090114603381899 -1.6071781086617811 1.0926334127031505 C -1.6084375133224071 1.0850769847393957 -1.61347513196491 1.0825581754181441 -1.61347513196491 1.0762611521150154 C -1.6122157273042843 1.0775205567756414 -1.6096969179830327 1.0775205567756414 -1.6084375133224071 1.0775205567756414 C -1.6084375133224071 1.0762611521150154 -1.6096969179830327 1.0724829381331378 -1.6096969179830327 1.0712235334725122 C -1.6096969179830327 1.0712235334725122 -1.6071781086617811 1.0724829381331378 -1.6059187040011556 1.0724829381331378 L -1.5996216806980263 1.0724829381331378 C -1.5945840620555234 1.0724829381331378 -1.5958434667161492 1.0812987707575186 -1.5945840620555234 1.0850769847393957 C -1.5945840620555234 1.078779961436267 -1.5945840620555234 1.0750017474543894 -1.590805848073646 1.0737423427937638 C -1.5882870387523944 1.0737423427937638 -1.5882870387523944 1.0687047241512606 -1.5882870387523944 1.0687047241512606 C -1.5882870387523944 1.0649265101693834 -1.5895464434130202 1.0611482961875058 -1.590805848073646 1.0573700822056287 C -1.590805848073646 1.053591868223751 -1.590805848073646 1.053591868223751 -1.5895464434130202 1.053591868223751 C -1.5895464434130202 1.053591868223751 -1.5857682294311428 1.054851272884377 -1.584508824770517 1.054851272884377 C -1.5857682294311428 1.0561106775450027 -1.5857682294311428 1.0573700822056287 -1.5857682294311428 1.0586294868662542 C -1.5857682294311428 1.0586294868662542 -1.584508824770517 1.0624077008481314 -1.584508824770517 1.0636671055087574 C -1.584508824770517 1.0649265101693834 -1.5819900154492657 1.0712235334725122 -1.5794712061280138 1.0737423427937638 C -1.5794712061280138 1.0699641288118866 -1.578211801467388 1.0687047241512606 -1.5769523968067625 1.067445319490635 L -1.5756929921461365 1.067445319490635 C -1.5744335874855109 1.067445319490635 -1.5719147781642593 1.066185914830009 -1.5706553735036333 1.0636671055087574 L -1.5630989455398785 1.0561106775450027 C -1.5568019222367497 1.049813654241874 -1.5530237082548721 1.040997821617493 -1.5530237082548721 1.0321819889931128 C -1.5530237082548721 1.0107721097624744 -1.566877159521756 0.9855840165499586 -1.5744335874855109 0.9729899699437007 C -1.6084375133224071 0.9087603322517855 -1.6374038205168002 0.8457900992204961 -1.6499978671230582 0.7828198661892065 C -1.5832494201098912 0.7047367772304076 -1.5341326383454854 0.5926497624347125 -1.5341326383454854 0.49189738958464935 C -1.5341326383454854 0.4717469150146367 -1.536651447666737 0.4528558451052499 -1.5404296616486146 0.4339647751958631 C -1.5416890663092402 0.4100360866439731 -1.5442078756304918 0.4062578726620958 -1.5530237082548721 0.39366382605583783 M -1.6222909645892907 0.702217967909156 C -1.621031559928665 0.6946615399454014 -1.61347513196491 0.6858457073210209 -1.6109563226436587 0.6782892793572661 C -1.615993941286162 0.6795486840178919 -1.61347513196491 0.6858457073210209 -1.619772155268039 0.6883645166422724 C -1.615993941286162 0.6795486840178919 -1.6096969179830327 0.673251660714763 -1.6071781086617811 0.6656952327510083 C -1.6046592993405295 0.6644358280903824 -1.6008810853586524 0.6619170187691308 -1.6008810853586524 0.6593982094478793 C -1.6021404900192782 0.6593982094478793 -1.6021404900192782 0.6593982094478793 -1.603399894679904 0.6593982094478793 C -1.590805848073646 0.6342101162353635 -1.5719147781642593 0.5762775018465772 -1.566877159521756 0.5674616692221968 C -1.5643583502005045 0.5624240505796935 -1.5630989455398785 0.5548676226159388 -1.5605801362186271 0.5485705993128099 C -1.5605801362186271 0.5573864319371904 -1.5643583502005045 0.5674616692221968 -1.56561775486113 0.5762775018465772 C -1.5681365641823817 0.5762775018465772 -1.56561775486113 0.5850933344709578 -1.5744335874855109 0.5901309531134609 C -1.5769523968067625 0.6039844043803445 -1.5769523968067625 0.6153190463259767 -1.5832494201098912 0.6291724975928603 C -1.5857682294311428 0.6342101162353635 -1.5895464434130202 0.6379883302172409 -1.5895464434130202 0.6455447581809957 C -1.5983622760374008 0.6493229721628729 -1.5945840620555234 0.6581388047872535 -1.5996216806980263 0.6631764234297566 C -1.6046592993405295 0.6782892793572661 -1.615993941286162 0.6883645166422724 -1.6222909645892907 0.702217967909156 M -1.56561775486113 0.5208636967790425 C -1.56561775486113 0.5284201247427973 -1.566877159521756 0.5334577433853004 -1.566877159521756 0.5397547666884294 C -1.5681365641823817 0.5397547666884294 -1.5693959688430077 0.5410141713490552 -1.5693959688430077 0.5422735760096808 C -1.5693959688430077 0.5447923853309325 -1.5769523968067625 0.5750180971859514 -1.578211801467388 0.577536906507203 C -1.5794712061280138 0.5813151204890804 -1.5807306107886396 0.5825745251497061 -1.5807306107886396 0.5838339298103319 C -1.5807306107886396 0.5850933344709578 -1.5832494201098912 0.5939091670953383 -1.5857682294311428 0.5964279764165898 C -1.5819900154492657 0.5762775018465772 -1.5744335874855109 0.5548676226159388 -1.5706553735036333 0.5309389340640489 L -1.566877159521756 0.5095290548334104 C -1.56561775486113 0.5133072688152878 -1.56561775486113 0.5170854827971652 -1.56561775486113 0.5208636967790425 M -1.5996216806980263 0.6896239213028982 C -1.6008810853586524 0.6896239213028982 -1.5983622760374008 0.684586302660395 -1.5958434667161492 0.6795486840178919 C -1.5958434667161492 0.673251660714763 -1.5857682294311428 0.6694734467328856 -1.5857682294311428 0.6593982094478793 C -1.5857682294311428 0.6619170187691308 -1.5807306107886396 0.6468041628416215 -1.5807306107886396 0.6455447581809957 C -1.578211801467388 0.6442853535203698 -1.5769523968067625 0.6405071395384925 -1.5756929921461365 0.6379883302172409 C -1.578211801467388 0.6531011861447503 -1.584508824770517 0.6707328513935114 -1.5945840620555234 0.6820674933391434 C -1.597102871376775 0.6871051119816467 -1.5983622760374008 0.6896239213028982 -1.5996216806980263 0.6896239213028982 M -1.5593207315580013 0.4604122730690047 C -1.5593207315580013 0.470487510354011 -1.5605801362186271 0.481822152299643 -1.5605801362186271 0.49189738958464935 C -1.5605801362186271 0.49189738958464935 -1.5605801362186271 0.5044914361909073 -1.56561775486113 0.5057508408515331 C -1.5630989455398785 0.49063798492402366 -1.561839540879253 0.4755251289965141 -1.561839540879253 0.4604122730690047 C -1.561839540879253 0.44907763112337257 -1.5630989455398785 0.43900239383836626 -1.5643583502005045 0.42892715655335995 C -1.5605801362186271 0.44026179849899205 -1.5593207315580013 0.45033703578399836 -1.5593207315580013 0.4604122730690047 M -1.5706553735036333 0.6266536882716088 C -1.5706553735036333 0.6241348789503571 -1.566877159521756 0.6065032137015962 -1.5630989455398785 0.6065032137015962 C -1.56561775486113 0.6128002370047251 -1.56561775486113 0.6228754742897313 -1.5706553735036333 0.6279130929322346 C -1.5719147781642593 0.6342101162353635 -1.5731741828248849 0.6354695208959893 -1.5756929921461365 0.6354695208959893 C -1.5756929921461365 0.6304319022534861 -1.5744335874855109 0.6279130929322346 -1.5706553735036333 0.6266536882716088 M -1.1562823378046974 0.4150737052864763 C -1.087015081470279 0.37477275614645106 -1.0341200857239958 0.2929114532057747 -1.03286068106337 0.22364419687135634 L -1.03286068106337 0.2186065782288532 C -1.03286068106337 0.1531175358763122 -1.0857556768096532 0.052365163026249176 -1.2142149521934837 0.052365163026249176 C -1.2142149521934837 0.027177069813733398 -1.2406624500666252 0.013323618546849637 -1.2885198271704053 0.013323618546849637 C -1.3955692233235972 0.013323618546849637 -1.3980880326448488 0.04858694904437173 -1.3980880326448488 0.04480873506249439 C -1.409422674590481 0.04984635370499754 -1.4144602932329842 0.06999682827501016 -1.4144602932329842 0.0813314702206423 C -1.4610582656761384 0.32943418836392263 -1.5240284987074277 0.5838339298103319 -1.5240284987074277 0.8067485547410966 L -1.5240284987074277 0.8168237920261029 C -1.5240284987074277 0.8734970017542634 -1.522769094046802 0.9402454487674301 -1.4837275495674025 0.9402454487674301 C -1.4900245728705315 0.9326890208036754 -1.491283977531157 0.9289108068217982 -1.491283977531157 0.9263919975005466 C -1.4900245728705315 0.9263919975005466 -1.4774305262642735 0.9301702114824237 -1.4723929076217703 0.935207830124927 C -1.4723929076217703 0.9314296161430495 -1.4761711216036477 0.9289108068217982 -1.4774305262642735 0.9276514021611724 C -1.4736523122823961 0.9301702114824237 -1.4723929076217703 0.9326890208036754 -1.4698740983005187 0.9326890208036754 C -1.4686146936398932 0.9326890208036754 -1.462317670336764 0.9326890208036754 -1.46357707499739 0.9314296161430495 C -1.4686146936398932 0.9263919975005466 -1.479949335585525 0.9163167602155402 -1.481208740246151 0.9112791415730369 C -1.4723929076217703 0.9112791415730369 -1.462317670336764 0.9326890208036754 -1.4535018377123836 0.935207830124927 C -1.4547612423730094 0.9314296161430495 -1.4560206470336352 0.9263919975005466 -1.4597988610155124 0.9226137835186691 C -1.4547612423730094 0.9226137835186691 -1.450983028391132 0.9251325928399207 -1.4459454097486288 0.9276514021611724 C -1.4484642190698804 0.9226137835186691 -1.4535018377123836 0.9200949741974175 -1.4535018377123836 0.9150573555549144 C -1.4522424330517576 0.9125385462336628 -1.4472048144092544 0.9100197369124111 -1.4409077911061257 0.9100197369124111 C -1.432091958481745 0.9188355695367918 -1.427054339839242 0.9226137835186691 -1.4245355305179905 0.9226137835186691 C -1.420757316536113 0.9226137835186691 -1.4194979118754874 0.917576164876166 -1.4194979118754874 0.9150573555549144 C -1.4119414839117326 0.9163167602155402 -1.3930504140023456 0.9238731881792949 -1.3892722000204683 0.9238731881792949 C -1.3892722000204683 0.9238731881792949 -1.3993474373054746 0.9163167602155402 -1.3993474373054746 0.9137979508942886 C -1.3993474373054746 0.9137979508942886 -1.3930504140023456 0.9163167602155402 -1.3917910093417198 0.9163167602155402 C -1.3917910093417198 0.9163167602155402 -1.3930504140023456 0.9137979508942886 -1.3930504140023456 0.9125385462336628 C -1.3917910093417198 0.9125385462336628 -1.3905316046810943 0.9150573555549144 -1.3867533906992167 0.9150573555549144 C -1.3854939860385909 0.9150573555549144 -1.3691217254504557 0.9200949741974175 -1.3603058928260752 0.9200949741974175 C -1.3603058928260752 0.9188355695367918 -1.3590464881654494 0.917576164876166 -1.3577870835048236 0.917576164876166 C -1.3477118462198172 0.917576164876166 -1.3401554182560624 0.917576164876166 -1.3401554182560624 0.9087603322517855 C -1.3401554182560624 0.9087603322517855 -1.3250425623285529 0.917576164876166 -1.3174861343647983 0.917576164876166 C -1.326301966989179 0.9087603322517855 -1.3388960135954369 0.8810534297180181 -1.3388960135954369 0.8609029551480055 C -1.3388960135954369 0.8558653365055023 -1.3376366089348108 0.8533465271842507 -1.3363772042741853 0.8470495038811219 C -1.3363772042741853 0.8571247411661281 -1.3325989902923077 0.8898692623423986 -1.3237831576679273 0.8974256903061534 C -1.3237831576679273 0.8961662856455276 -1.313707920382921 0.9112791415730369 -1.3099297064010438 0.9125385462336628 C -1.3237831576679273 0.8949068809849018 -1.3250425623285529 0.8646811691298828 -1.3250425623285529 0.8357148619354897 L -1.3250425623285529 0.8143049827048513 C -1.3250425623285529 0.8054891500804708 -1.3250425623285529 0.8017109360985935 -1.3225237530073015 0.7928951034742129 C -1.3212643483466757 0.7954139127954645 -1.3074108970797922 0.7954139127954645 -1.3048920877585404 0.797932722116716 C -1.3048920877585404 0.797932722116716 -1.313707920382921 0.7991921267773419 -1.313707920382921 0.8029703407592191 C -1.3086703017404178 0.8004515314379677 -1.3036326830979146 0.8004515314379677 -1.2960762551341598 0.8004515314379677 C -1.2960762551341598 0.8029703407592191 -1.2998544691160374 0.8042297454198449 -1.302373278437289 0.8054891500804708 C -1.3048920877585404 0.8054891500804708 -1.3061514924191662 0.8080079594017223 -1.3061514924191662 0.8092673640623481 L -1.2948168504735342 0.8042297454198449 C -1.2910386364916568 0.8042297454198449 -1.2910386364916568 0.8105267687229739 -1.2885198271704053 0.8105267687229739 C -1.2822228038672763 0.8105267687229739 -1.2809633992066507 0.8117861733835997 -1.2759257805641473 0.8143049827048513 C -1.2797039945460247 0.8155643873654771 -1.2809633992066507 0.8168237920261029 -1.2809633992066507 0.8168237920261029 C -1.2809633992066507 0.8168237920261029 -1.277185185224773 0.8231208153292318 -1.2696287572610183 0.8231208153292318 C -1.2683693526003927 0.8231208153292318 -1.265850543279141 0.8231208153292318 -1.2633317339578896 0.8218614106686061 C -1.260812924636638 0.8206020060079803 -1.2582941153153864 0.8180831966867286 -1.2570347106547604 0.8180831966867286 C -1.2532564966728832 0.8180831966867286 -1.2570347106547604 0.8218614106686061 -1.2519970920122572 0.8231208153292318 C -1.2519970920122572 0.8256396246504835 -1.2507376873516316 0.8268990293111093 -1.2507376873516316 0.8268990293111093 C -1.2545159013335088 0.8268990293111093 -1.2545159013335088 0.8281584339717349 -1.2545159013335088 0.8294178386323607 C -1.2545159013335088 0.8306772432929865 -1.24821887803038 0.8268990293111093 -1.2444406640485024 0.8268990293111093 C -1.241921854727251 0.8268990293111093 -1.2406624500666252 0.8281584339717349 -1.2406624500666252 0.8306772432929865 C -1.235624831424122 0.8294178386323607 -1.2318466174422447 0.8281584339717349 -1.2280684034603673 0.8281584339717349 C -1.2255495941391157 0.8281584339717349 -1.241921854727251 0.8369742665961155 -1.2494782826910058 0.8382336712567412 L -1.2406624500666252 0.8382336712567412 C -1.2381436407453736 0.8382336712567412 -1.2343654267634963 0.8394930759173671 -1.2331060221028705 0.8407524805779929 C -1.2242901894784899 0.8382336712567412 -1.217993166175361 0.8369742665961155 -1.2129555475328577 0.8369742665961155 C -1.2129555475328577 0.8369742665961155 -1.2079179288903548 0.8382336712567412 -1.1978426916053484 0.8382336712567412 C -1.15250412382282 0.8382336712567412 -1.0190072297964865 0.8218614106686061 -0.9812250899777128 0.6505823768234987 L -0.9812250899777128 0.6468041628416215 C -0.9824844946383386 0.6468041628416215 -0.991300327262719 0.6808080886785177 -0.9988567552264738 0.6833268979997692 C -0.9925597319233448 0.6631764234297566 -0.9850033039595902 0.6417665441991182 -0.9850033039595902 0.6203566649684799 C -0.9850033039595902 0.5838339298103319 -0.997597350565848 0.5498300039734356 -1.0202666344571123 0.5145666734759136 C -0.9950785412445964 0.5460517899915583 -0.9812250899777128 0.5838339298103319 -0.979965685317087 0.6342101162353635 C -0.979965685317087 0.6291724975928603 -0.9774468759958355 0.6228754742897313 -0.9774468759958355 0.6178378556472283 C -0.9774468759958355 0.5133072688152878 -1.0567893696152602 0.4427806078202436 -1.1562823378046974 0.4150737052864763 M -1.0983497234159112 0.6153190463259767 C -1.1071655560402915 0.7034773725697818 -1.2091773335509806 0.7525941543341876 -1.3212643483466757 0.7538535589948134 C -1.3124485157222952 0.6606576141085051 -1.2985950644554114 0.5787963111678289 -1.2847416131885279 0.49063798492402366 C -1.2784445898853989 0.49063798492402366 -1.27214756658227 0.48937858026339776 -1.265850543279141 0.48937858026339776 C -1.1776922170353359 0.48937858026339776 -1.0983497234159112 0.5435329806703066 -1.0983497234159112 0.6065032137015962 M -1.2217713801572385 0.1279294426637964 C -1.2154743568541093 0.1266700380031707 -1.2104367382116064 0.1266700380031707 -1.205399119569103 0.1266700380031707 C -1.1575417424653232 0.1266700380031707 -1.1159813886646721 0.1644521778219443 -1.1159813886646721 0.21608776890760167 C -1.1159813886646721 0.28661442990264585 -1.1865080496597162 0.34958466293393525 -1.260812924636638 0.3634381142008189 C -1.2519970920122572 0.2815768112601427 -1.2318466174422447 0.2085313409438469 -1.2217713801572385 0.1279294426637964" fill="url(#gradient-50c2b507-6f9c-408d-81d9-3069e67aa672)" transform="matrix(1,0,0,1,0,0)" fill-rule="nonzero"></path></g><g><path d=" M 0.075439453125 0.5595703125000002 Q 0.075439453125 0.4357910156250002 0.114990234375 0.3328857421875002 Q 0.154541015625 0.22998046875000022 0.23291015625 0.15600585937500022 Q 0.311279296875 0.08203125000000022 0.428466796875 0.04101562500000022 Q 0.545654296875 2.220446049250313e-16 0.700927734375 2.220446049250313e-16 Q 0.85546875 2.220446049250313e-16 0.97265625 0.04101562500000022 Q 1.08984375 0.08203125000000022 1.168212890625 0.15600585937500022 Q 1.24658203125 0.22998046875000022 1.2861328125 0.3328857421875002 Q 1.32568359375 0.4357910156250002 1.32568359375 0.5595703125000002 Q 1.32568359375 0.6555175781250002 1.3026123046875 0.7386474609375002 Q 1.279541015625 0.8217773437500002 1.234130859375 0.8891601562500002 Q 1.188720703125 0.9565429687500002 1.1202392578125 1.0063476562500002 Q 1.0517578125 1.0561523437500002 0.961669921875 1.0854492187500002 Q 0.99755859375 1.0971679687500002 1.05322265625 1.1022949218750002 Q 1.10888671875 1.1074218750000002 1.1923828125 1.1066894531250002 L 1.32568359375 1.1066894531250002 L 1.215087890625 1.3029785156250002 Q 1.122802734375 1.3029785156250002 1.0469970703125 1.2923583984375002 Q 0.97119140625 1.2817382812500002 0.9100341796875 1.2597656250000002 Q 0.848876953125 1.2377929687500002 0.8009033203125 1.2037353515625002 Q 0.7529296875 1.1696777343750002 0.715576171875 1.1228027343750002 L 0.700927734375 1.1228027343750002 Q 0.545654296875 1.1228027343750002 0.428466796875 1.0817871093750002 Q 0.311279296875 1.0407714843750002 0.23291015625 0.9667968750000002 Q 0.154541015625 0.8928222656250002 0.114990234375 0.7888183593750002 Q 0.075439453125 0.6848144531250002 0.075439453125 0.5595703125000002 M 0.700927734375 0.9711914062500002 Q 0.744873046875 0.9711914062500002 0.778564453125 0.9558105468750002 Q 0.812255859375 0.9404296875000002 0.8349609375 0.8957519531250002 Q 0.857666015625 0.8510742187500002 0.869384765625 0.7705078125000002 Q 0.881103515625 0.6899414062500002 0.881103515625 0.5595703125000002 Q 0.881103515625 0.4306640625000002 0.869384765625 0.3508300781250002 Q 0.857666015625 0.2709960937500002 0.8349609375 0.22705078125000022 Q 0.812255859375 0.18310546875000022 0.778564453125 0.16772460937500022 Q 0.744873046875 0.15234375000000022 0.700927734375 0.15234375000000022 Q 0.656982421875 0.15234375000000022 0.6229248046875 0.16772460937500022 Q 0.5888671875 0.18310546875000022 0.566162109375 0.22705078125000022 Q 0.54345703125 0.2709960937500002 0.53173828125 0.3508300781250002 Q 0.52001953125 0.4306640625000002 0.52001953125 0.5595703125000002 Q 0.52001953125 0.6899414062500002 0.53173828125 0.7705078125000002 Q 0.54345703125 0.8510742187500002 0.566162109375 0.8957519531250002 Q 0.5888671875 0.9404296875000002 0.6229248046875 0.9558105468750002 Q 0.656982421875 0.9711914062500002 0.700927734375 0.9711914062500002 M 1.5373535156250002 0.017578125000000222 L 1.9606933593750002 0.017578125000000222 L 1.9606933593750002 0.7089843750000002 Q 1.9606933593750002 0.7675781250000002 1.9764404296875002 0.8104248046875002 Q 1.9921875000000002 0.8532714843750002 2.0203857421875 0.8814697265625002 Q 2.048583984375 0.9096679687500002 2.086669921875 0.9235839843750002 Q 2.124755859375 0.9375000000000002 2.168701171875 0.9375000000000002 Q 2.217041015625 0.9375000000000002 2.2554931640625 0.9235839843750002 Q 2.2939453125 0.9096679687500002 2.321044921875 0.8811035156250002 Q 2.34814453125 0.8525390625000002 2.36279296875 0.8093261718750002 Q 2.37744140625 0.7661132812500002 2.37744140625 0.7075195312500002 L 2.37744140625 0.017578125000000222 L 2.53857421875 0.017578125000000222 L 2.53857421875 0.6826171875000002 Q 2.53857421875 0.7836914062500002 2.5059814453125 0.8649902343750002 Q 2.473388671875 0.9462890625000002 2.413330078125 1.0037841796875002 Q 2.353271484375 1.0612792968750002 2.268310546875 1.0920410156250002 Q 2.183349609375 1.1228027343750002 2.07861328125 1.1228027343750002 Q 1.9357910156250002 1.1228027343750002 1.8332519531250002 1.0924072265625002 Q 1.7307128906250002 1.0620117187500002 1.6647949218750002 1.0052490234375002 Q 1.5988769531250002 0.9484863281250002 1.5681152343750002 0.8679199218750002 Q 1.5373535156250002 0.7873535156250002 1.5373535156250002 0.6862792968750002 L 1.5373535156250002 0.017578125000000222 M 2.76123046875 0.017578125000000222 L 3.185302734375 0.017578125000000222 L 3.1845703125 1.1059570312500002 L 2.76123046875 1.1059570312500002 L 2.76123046875 0.017578125000000222 M 3.39990234375 0.5625000000000002 Q 3.39990234375 0.4848632812500002 3.4200439453125 0.4127197265625002 Q 3.440185546875 0.3405761718750002 3.47900390625 0.2783203125000002 Q 3.517822265625 0.21606445312500022 3.57421875 0.16479492187500022 Q 3.630615234375 0.11352539062500022 3.7027587890625 0.07690429687500022 Q 3.77490234375 0.04028320312500022 3.862060546875 0.020141601562500222 Q 3.94921875 2.220446049250313e-16 4.049560546875 2.220446049250313e-16 Q 4.114013671875 2.220446049250313e-16 4.1729736328125 0.008056640625000222 Q 4.23193359375 0.016113281250000222 4.283935546875 0.030395507812500222 Q 4.3359375 0.04467773437500022 4.3802490234375 0.06335449218750022 Q 4.424560546875 0.08203125000000022 4.46044921875 0.10253906250000022 L 4.3974609375 0.22558593750000022 Q 4.3564453125 0.20581054687500022 4.3040771484375 0.19226074218750022 Q 4.251708984375 0.17871093750000022 4.1953125 0.17871093750000022 Q 4.119873046875 0.17871093750000022 4.055419921875 0.20581054687500022 Q 3.990966796875 0.23291015625000022 3.944091796875 0.2827148437500002 Q 3.897216796875 0.3325195312500002 3.8704833984375 0.4031982421875002 Q 3.84375 0.4738769531250002 3.84375 0.5617675781250002 Q 3.84375 0.6489257812500002 3.8701171875 0.7196044921875002 Q 3.896484375 0.7902832031250002 3.9429931640625 0.8404541015625002 Q 3.989501953125 0.8906250000000002 4.0535888671875 0.9180908203125002 Q 4.11767578125 0.9455566406250002 4.1923828125 0.9455566406250002 Q 4.2451171875 0.9455566406250002 4.2978515625 0.9327392578125002 Q 4.3505859375 0.9199218750000002 4.39453125 0.8986816406250002 L 4.45751953125 1.0217285156250002 Q 4.421630859375 1.0429687500000002 4.377685546875 1.0612792968750002 Q 4.333740234375 1.0795898437500002 4.282470703125 1.0938720703125002 Q 4.231201171875 1.1081542968750002 4.172607421875 1.1162109375000002 Q 4.114013671875 1.1242675781250002 4.049560546875 1.1242675781250002 Q 3.8994140625 1.1242675781250002 3.7789306640625 1.0799560546875002 Q 3.658447265625 1.0356445312500002 3.57421875 0.9591064453125002 Q 3.489990234375 0.8825683593750002 3.4449462890625 0.7803955078125002 Q 3.39990234375 0.6782226562500002 3.39990234375 0.5625000000000002 M 4.62890625 0.017578125000000222 L 5.05224609375 0.017578125000000222 L 5.05224609375 0.6481933593750002 L 5.523193359375 0.017578125000000222 L 5.73486328125 0.017578125000000222 L 5.3876953125 0.4848632812500002 L 5.842529296875 1.1066894531250002 L 5.36572265625 1.1066894531250002 L 5.12255859375 0.7646484375000002 L 5.05224609375 0.8613281250000002 L 5.05224609375 1.1059570312500002 L 4.62890625 1.1059570312500002 L 4.62890625 0.017578125000000222 M 6.439453125 0.017578125000000222 L 7.01513671875 0.017578125000000222 Q 7.13671875 0.017578125000000222 7.2279052734375 0.03808593750000022 Q 7.319091796875 0.05859375000000022 7.3802490234375 0.09631347656250022 Q 7.44140625 0.13403320312500022 7.47216796875 0.18713378906250022 Q 7.5029296875 0.24023437500000022 7.5029296875 0.3054199218750002 Q 7.5029296875 0.3706054687500002 7.4666748046875 0.4281005859375002 Q 7.430419921875 0.4855957031250002 7.36083984375 0.5273437500000002 Q 7.47509765625 0.5603027343750002 7.531494140625 0.6240234375000002 Q 7.587890625 0.6877441406250002 7.587890625 0.7800292968750002 Q 7.587890625 0.8430175781250002 7.5574951171875 0.9016113281250002 Q 7.527099609375 0.9602050781250002 7.4666748046875 1.0056152343750002 Q 7.40625 1.0510253906250002 7.3154296875 1.0784912109375002 Q 7.224609375 1.1059570312500002 7.10302734375 1.1059570312500002 L 6.439453125 1.1059570312500002 L 6.439453125 0.017578125000000222 M 6.908203125 0.4599609375000002 Q 6.96826171875 0.4599609375000002 7.00927734375 0.4486083984375002 Q 7.05029296875 0.4372558593750002 7.0748291015625 0.4174804687500002 Q 7.099365234375 0.3977050781250002 7.1099853515625 0.3720703125000002 Q 7.12060546875 0.3464355468750002 7.12060546875 0.3186035156250002 Q 7.12060546875 0.2907714843750002 7.1099853515625 0.2651367187500002 Q 7.099365234375 0.23950195312500022 7.0748291015625 0.22009277343750022 Q 7.05029296875 0.20068359375000022 7.00927734375 0.18896484375000022 Q 6.96826171875 0.17724609375000022 6.908203125 0.17724609375000022 L 6.863525390625 0.17724609375000022 L 6.86279296875 0.4599609375000002 L 6.908203125 0.4599609375000002 M 6.908203125 0.9462890625000002 Q 6.973388671875 0.9462890625000002 7.01806640625 0.9323730468750002 Q 7.062744140625 0.9184570312500002 7.090576171875 0.8942871093750002 Q 7.118408203125 0.8701171875000002 7.130859375 0.8375244140625002 Q 7.143310546875 0.8049316406250002 7.143310546875 0.7675781250000002 Q 7.143310546875 0.7346191406250002 7.130126953125 0.7031250000000002 Q 7.116943359375 0.6716308593750002 7.0909423828125 0.6470947265625002 Q 7.06494140625 0.6225585937500002 7.02685546875 0.6075439453125002 Q 6.98876953125 0.5925292968750002 6.93896484375 0.5925292968750002 L 6.86279296875 0.5925292968750002 L 6.86279296875 0.9462890625000002 L 6.908203125 0.9462890625000002 M 7.7900390625 0.017578125000000222 L 8.214111328125 0.017578125000000222 L 8.21337890625 1.1059570312500002 L 7.7900390625 1.1059570312500002 L 7.7900390625 0.017578125000000222 M 8.68359375 0.18457031250000022 L 8.373046875 0.18457031250000022 L 8.373046875 0.016845703125000222 L 9.41748046875 0.016845703125000222 L 9.41748046875 0.18457031250000022 L 9.10693359375 0.18457031250000022 L 9.10693359375 1.1059570312500002 L 8.68359375 1.1059570312500002 L 8.68359375 0.18457031250000022 M 9.576416015625 0.017578125000000222 L 10.496337890625 0.017578125000000222 L 10.496337890625 0.18530273437500022 L 10.00048828125 0.18530273437500022 L 9.999755859375 0.4790039062500002 L 10.379150390625 0.4790039062500002 L 10.379150390625 0.6467285156250002 L 9.999755859375 0.6467285156250002 L 9.999755859375 0.9382324218750002 L 10.496337890625 0.9382324218750002 L 10.496337890625 1.1059570312500002 L 9.576416015625 1.1059570312500002 L 9.576416015625 0.017578125000000222" fill="url(#gradient-2cc8f728-931d-45af-bc96-9303e8a94f14)" fill-rule="nonzero"></path></g><g></g></g><defs><clipPath id="SvgjsClipPath87628"><path d=" M -2.7198750401419862 -0.606959004445993 h 2.3198750401419863 v 2.3198750401419863 h -2.3198750401419863 Z"></path></clipPath><clipPath id="SvgjsClipPath87626710d3c48-bf26-4367-951f-29bd5c16b23e"><path d=" M -2.7198750401419867 -0.597679504285425 L -0.40000000000000013 -0.597679504285425 L -0.40000000000000013 1.7036365355354253 L -2.7198750401419867 1.7036365355354253 Z"></path></clipPath><linearGradient id="gradient-1d3624db-a632-4dc8-ba9c-bae40a1c8620_0" x1="0" x2="1" y1="0" y2="1"><stop stop-color="#e27d7a" offset="0"></stop><stop stop-color="#c9464b" offset="1"></stop></linearGradient><linearGradient id="gradient-1d3624db-a632-4dc8-ba9c-bae40a1c8620_1" x1="0" x2="1" y1="0" y2="1"><stop stop-color="#e37f7c" offset="0"></stop><stop stop-color="#ca484c" offset="1"></stop></linearGradient><linearGradient id="gradient-1d3624db-a632-4dc8-ba9c-bae40a1c8620_2" x1="0" x2="1" y1="0" y2="1"><stop stop-color="#e17a78" offset="0"></stop><stop stop-color="#c84449" offset="1"></stop></linearGradient><linearGradient id="gradient-50c2b507-6f9c-408d-81d9-3069e67aa672" x1="0" x2="1" y1="0" y2="1"><stop stop-color="#e9ae3f" offset="0"></stop><stop stop-color="#bd2949" offset="1"></stop></linearGradient><linearGradient id="gradient-2cc8f728-931d-45af-bc96-9303e8a94f14" y1="0" x1="0" y2="1" x2="1"><stop stop-color="#e9ae3f" offset="0"></stop><stop stop-color="#bd2949" offset="1"></stop></linearGradient></defs></svg>